<svg width="248" height="87" viewBox="0 0 248 87" fill="none" xmlns="http://www.w3.org/2000/svg">
<path d="M4.1365 6.29737C7.2191 3.38272 10.7992 2.08344 14.8698 2.08227C32.1551 2.07727 49.4404 2.05386 66.7256 2.09681C72.9193 2.1122 77.7438 4.63548 80.6131 10.3145C81.5457 12.1604 81.9504 14.1711 81.9509 16.2453C81.956 34.743 81.9743 53.2407 81.9483 71.7384C81.9375 79.3934 75.638 85.6364 67.9744 85.6422C50.177 85.6558 32.3795 85.6492 14.5821 85.6448C6.91132 85.6429 1.21884 80.5966 0.237917 72.9473C-0.138945 70.0084 0.205993 67.0694 0.209534 64.1301C0.220161 55.3008 0.0329998 46.4704 0.114057 37.6422C0.181579 30.2885 -0.229058 22.9334 0.19427 15.5822C0.396543 12.0698 1.64887 8.99473 4.1365 6.29737ZM70.1452 50.6245C71.1712 46.8355 71.6229 42.9957 71.3784 39.0607C70.8739 30.9417 63.5788 25.2638 55.6284 26.7985C52.5696 27.389 49.8164 28.7453 47.0424 30.0304C43.003 31.9019 39.0594 31.9494 35.0402 29.9951C33.1471 29.0746 31.19 28.2564 29.2012 27.5666C21.4116 24.8649 13.8841 28.3581 11.5195 35.7075C10.4948 38.8926 10.4915 42.2037 11.0431 45.3939C12.5976 54.3852 15.7621 62.8854 19.6041 71.134C20.5236 73.1082 21.6784 74.9601 23.492 76.2905C26.952 78.8285 30.6535 77.7705 32.1093 73.754C32.6292 72.3195 32.9341 70.8064 33.3246 69.3258C33.9935 66.7896 34.6189 64.2324 36.2185 62.0736C38.8136 58.5712 42.8412 58.4458 45.657 61.788C47.1307 63.5371 47.9131 65.6342 48.5122 67.8057C49.0553 69.7744 49.4712 71.7851 50.13 73.7135C51.5147 77.7666 55.2319 78.8957 58.7025 76.3751C60.4004 75.142 61.5222 73.418 62.4448 71.5782C65.753 64.9808 68.0964 58.0237 70.1452 50.6245ZM45.7231 24.2718C48.7696 21.4116 49.1613 17.4095 46.6765 14.5294C44.0122 11.4413 39.4935 11.0528 36.352 13.6419C33.4718 16.0157 33.0611 20.2634 35.3388 23.2993C37.3798 26.0197 42.1068 27.0379 45.7231 24.2718Z" fill="#01B5DC"/>
<path d="M104.321 27.7952C106.599 36.6014 115.796 37.609 121.346 34.8811C122.599 34.2652 122.787 33.2495 122.756 32.0142C122.651 27.8685 123.516 27.8318 118.623 27.8566C118.431 27.8576 118.239 27.8606 118.047 27.8561C113.973 27.7594 114.305 28.7243 114.282 23.8662C114.277 22.6642 114.851 22.3076 115.929 22.3126C119.64 22.3301 123.351 22.3329 127.062 22.3135C128.247 22.3073 128.8 22.7543 128.781 24.0175C128.728 27.4711 128.734 30.9263 128.773 34.3802C128.787 35.5844 128.222 36.4534 127.443 37.2441C123.551 41.197 118.652 42.3609 113.366 41.9456C105.873 41.3569 100.197 36.7214 98.1336 29.8545C95.8953 22.4049 98.1212 14.329 103.696 9.7756C109.792 4.79635 118.138 5.31854 124.144 8.38673C125.152 8.90173 125.654 9.69714 125.628 10.8549C125.595 12.3678 125.62 13.8821 125.62 15.3727C124.534 15.5836 124.141 14.8585 123.589 14.5014C120.254 12.344 116.659 11.0562 112.685 11.9242C105.661 13.4586 103.331 20.0379 103.96 25.9497C104.021 26.5196 104.166 27.0805 104.321 27.7952Z" fill="#0E2740"/>
<path d="M115.074 74.7137C115.119 71.5875 114.194 70.1443 111.286 69.0809C109.069 68.2703 106.742 67.7606 104.53 66.9384C98.6744 64.7614 96.4255 58.7694 99.4134 53.3382C101.05 50.3643 103.946 49.2675 107.059 48.8402C110.606 48.3533 114.057 48.9142 117.328 50.4691C118.52 51.0354 119.063 51.7926 118.892 53.1773C118.739 54.4126 118.86 55.6817 118.86 57.2568C117.408 56.4815 116.311 55.8716 115.193 55.3036C113.033 54.2066 110.732 53.6633 108.327 53.9981C106.649 54.2317 105.031 54.7942 104.578 56.7543C104.124 58.7221 104.892 60.3583 106.739 61.4462C107.959 62.1649 109.292 62.5999 110.661 62.9558C112.205 63.3571 113.774 63.7169 115.255 64.2939C119.252 65.8519 121.25 68.8726 121.427 73.1366C121.607 77.4568 119.726 80.6201 115.803 82.3038C110.187 84.7143 104.679 83.8004 99.3402 81.2089C98.8104 80.9517 98.3271 80.5633 98.2967 79.9266C98.2092 78.0961 98.1019 76.2598 98.3874 74.2811C99.6222 74.4688 100.331 75.2427 101.155 75.7648C103.926 77.5192 106.882 78.6118 110.217 78.2731C112.446 78.0469 114.308 77.2301 115.074 74.7137Z" fill="#0E2740"/>
<path d="M124.517 75.8893C122.13 68.4725 124.708 61.4934 130.881 58.8219C135.562 56.7958 140.21 57.0999 144.315 60.2256C148.281 63.2445 149.669 67.4316 149.268 72.4105C148.842 77.7058 144.847 82.5827 139.216 83.4819C132.403 84.5699 127.494 82.0358 124.517 75.8893ZM133.874 78.0471C138.307 79.7602 142.469 77.4635 143.418 71.9991C144.021 68.5285 142.215 64.7597 139.325 63.4493C136.463 62.1519 133.322 62.8605 131.37 65.244C128.274 69.0248 129.397 75.3871 133.874 78.0471Z" fill="#0E2740"/>
<path d="M176.443 20.5403C174.483 21.0231 173.042 22.2569 171.36 23.0247C170.312 19.3082 170.944 17.9642 174.152 16.3779C176.941 14.9991 179.889 14.947 182.782 15.4904C187.48 16.373 190.022 19.6103 190.132 24.6444C190.24 29.5688 190.127 34.4977 190.18 39.4238C190.195 40.8555 189.627 41.412 188.239 41.2817C187.668 41.2282 187.082 41.2225 186.513 41.2836C185.148 41.4302 184.422 40.9091 184.607 39.1563C182.86 40.6103 181.158 41.4697 179.168 41.8261C174.321 42.6942 169.668 39.976 168.917 35.7198C168.029 30.6792 171.183 26.7399 176.621 26.0408C178.528 25.7957 180.433 25.6618 182.356 25.6744C184.226 25.6866 184.605 25.1009 184.033 23.3216C183.589 21.9396 182.674 21.0332 181.306 20.5771C179.744 20.0562 178.172 19.9991 176.443 20.5403ZM179.078 37.1802C182.447 36.5511 184.293 34.4627 184.294 31.3948C184.295 30.2907 183.952 29.744 182.768 29.7638C181.303 29.7884 179.848 29.8067 178.402 30.0848C175.967 30.5534 174.713 31.8982 174.795 34.0042C174.871 35.9725 176.135 36.9841 179.078 37.1802Z" fill="#0E2740"/>
<path d="M229.865 58.0911C237.777 56.6798 243.662 59.9879 245.659 66.8315C247.542 73.2837 244.572 80.2157 238.882 82.6461C232.597 85.3307 225.589 83.1791 222.3 77.5547C217.948 70.1131 221.572 60.6256 229.865 58.0911ZM226.67 69.5158C226.688 70.5345 226.631 71.5611 226.737 72.5706C227.03 75.3724 229.033 77.679 231.627 78.3033C235.863 79.3228 239.177 77.0061 240.17 72.3314C241.104 67.9334 238.584 63.7357 234.506 62.8975C230.738 62.1232 227.455 64.763 226.67 69.5158Z" fill="#0E2740"/>
<path d="M218.156 77.0412C216.963 81.3599 213.703 83.6144 208.64 83.649C206.4 83.6643 204.196 83.3497 202.024 82.7013C200.239 82.1686 199.235 81.29 199.563 79.2927C199.694 78.4958 199.446 77.6478 199.743 76.9026C200.556 76.6557 201.076 77.1289 201.643 77.3751C204.032 78.4138 206.503 78.9246 209.117 78.6933C210.616 78.5606 211.994 78.1793 212.219 76.4431C212.438 74.7465 211.12 74.0799 209.821 73.6564C208.247 73.1433 206.598 72.8679 205.004 72.4115C201.169 71.3138 199.196 68.8605 199.21 65.2924C199.224 61.655 201.149 59.3536 205.008 58.1713C207.885 57.2901 210.7 57.5993 213.511 58.3729C216.79 59.2751 217.568 61.018 216.178 64.5904C214.378 63.8413 212.617 62.9538 210.665 62.601C209.3 62.3542 207.995 62.3528 206.716 62.886C205.843 63.2502 205.199 63.8165 205.16 64.8687C205.124 65.8534 205.496 66.5995 206.32 67.1375C207.871 68.1493 209.67 68.3355 211.418 68.6978C216.376 69.726 218.378 72.1489 218.156 77.0412Z" fill="#0E2740"/>
<path d="M172.178 58.4517C173.243 58.3618 174.138 58.3371 175.033 58.3093C176.373 58.2678 177.771 58.1379 177.474 60.5642C179.384 58.7494 181.245 57.8464 183.426 57.7551C184.861 57.695 186.029 57.9956 185.662 59.8785C185.626 60.064 185.65 60.2615 185.648 60.4534C185.607 63.3416 185.607 63.3416 182.689 63.5526C179.701 63.7685 177.71 65.8269 177.566 69.2207C177.404 73.0535 177.407 76.8976 177.477 80.7342C177.51 82.4987 177.054 83.2728 175.112 83.1845C171.187 83.0059 171.555 83.544 171.546 79.4952C171.531 73.2884 171.53 67.0815 171.553 60.8748C171.556 60.0763 171.293 59.1917 172.178 58.4517Z" fill="#0E2740"/>
<path d="M160.358 59.676C161.931 58.1567 163.792 57.7969 165.746 57.7798C166.919 57.7696 167.726 58.2206 167.558 59.6123C167.505 60.0529 167.504 60.5115 167.561 60.9514C167.804 62.8427 167.233 63.6562 165.095 63.5943C161.332 63.4853 159.215 66.0519 159.136 70.4981C159.074 74.0098 159.065 77.5246 159.146 81.0354C159.181 82.5527 158.777 83.1984 157.123 83.1808C153.46 83.1416 153.461 83.2213 153.462 79.5717C153.464 73.2489 153.512 66.9254 153.433 60.6035C153.411 58.9038 153.856 58.0675 155.674 58.2993C156.736 58.4347 157.844 58.1169 158.944 58.6129C159.039 59.219 159.137 59.8396 159.238 60.4804C159.821 60.5755 159.889 59.9405 160.358 59.676Z" fill="#0E2740"/>
<path d="M209.439 26.4398C210.698 26.3811 211.771 26.4273 212.818 26.8029C214.188 27.2946 214.718 26.6949 214.653 25.3394C214.623 24.7022 214.69 24.0599 214.651 23.4238C214.555 21.8939 214.999 21.0535 216.782 21.0723C218.65 21.092 218.601 22.212 218.597 23.4924C218.58 28.4749 218.603 33.4576 218.559 38.4398C218.552 39.3448 219.011 40.6165 217.963 41.0508C216.756 41.5511 215.357 41.5657 214.267 40.5196C211.682 42.1954 209.023 42.3477 206.496 40.6803C203.49 38.696 202.996 35.5784 203.549 32.3374C204.087 29.1773 205.934 27.0225 209.439 26.4398ZM213.401 37.395C215.675 34.6332 214.898 30.8406 211.899 30.1511C210.144 29.7475 208.736 30.3016 207.824 31.8859C206.998 33.321 207.333 36.1744 208.479 37.2772C209.939 38.6825 211.536 38.6668 213.401 37.395Z" fill="#0E2740"/>
<path d="M165.143 36.5304C165.143 36.9759 165.144 37.2313 165.14 37.4866C165.083 41.6412 165.512 41.1931 161.284 41.297C159.638 41.3374 159.219 40.6514 159.236 39.1392C159.297 33.9689 159.26 28.7975 159.262 23.6265C159.262 21.6474 159.333 19.6654 159.244 17.6904C159.179 16.2441 159.792 15.8234 161.156 15.7931C165.154 15.7044 165.147 15.6612 165.143 19.6782C165.137 25.2322 165.143 30.7862 165.143 36.5304Z" fill="#0E2740"/>
<path d="M195.209 67.2654C195.207 71.9262 195.146 76.3962 195.233 80.8632C195.267 82.5694 194.785 83.2592 192.969 83.1825C189.194 83.0231 189.325 83.6519 189.329 79.5617C189.335 73.3054 189.374 67.0484 189.29 60.7932C189.265 58.9223 189.808 58.188 191.794 58.2659C195.203 58.3998 195.209 58.2848 195.21 61.7108C195.211 63.4983 195.209 65.2858 195.209 67.2654Z" fill="#0E2740"/>
<path d="M220.933 31.4059C222.18 28.191 224.466 26.584 227.715 26.4517C230.759 26.3277 233.299 27.4202 234.674 30.267C236.137 33.2972 236.062 36.3607 233.989 39.1386C232.062 41.7208 227.977 42.5992 224.916 41.22C221.91 39.8654 219.99 36.4046 220.5 33.2303C220.591 32.664 220.749 32.1085 220.933 31.4059ZM231.136 36.6037C231.351 36.0711 231.647 35.5562 231.766 35.0031C232.426 31.9279 229.852 29.0184 227.175 29.8712C225.433 30.4261 224.481 31.7355 224.389 33.6123C224.295 35.5278 224.695 37.2795 226.599 38.1117C228.298 38.8545 229.864 38.4576 231.136 36.6037Z" fill="#0E2740"/>
<path d="M190.564 54.6341C188.911 53.5255 188.463 52.0592 189.032 50.3917C189.51 48.9918 190.679 48.3372 192.156 48.3305C193.728 48.3233 194.82 49.0824 195.378 50.545C195.852 51.7876 195.626 52.9673 194.702 53.8978C193.581 55.0266 192.233 55.4217 190.564 54.6341Z" fill="#0E2740"/>
<path d="M160.069 6.84991C162.43 5.65264 164.429 6.25294 165.253 8.27532C165.98 10.058 164.98 12.0622 163.039 12.648C161.492 13.1149 160.202 12.5795 159.399 11.2745C158.473 9.76785 158.577 8.23809 160.069 6.84991Z" fill="#0E2740"/>
<path d="M47.3316 50.6449C39.1453 52.471 32.1511 50.5214 26.2201 44.8094C25.7624 44.3686 25.2956 43.9066 24.9624 43.3736C24.1399 42.0583 24.007 40.6695 25.2329 39.5529C26.5087 38.3909 27.9431 38.4479 29.1737 39.6698C30.8097 41.2945 32.4402 42.8805 34.5531 43.9201C41.2375 47.209 48.3844 45.9331 53.4251 40.4773C54.2588 39.5749 55.061 38.6228 56.4693 38.8319C58.8805 39.19 59.8254 41.5663 58.235 43.5859C55.8476 46.6176 52.6554 48.5956 49.1097 50.0283C48.5778 50.2433 48.024 50.4039 47.3316 50.6449Z" fill="#01B5DC"/>
<path d="M146.423 14.6482C151.008 15.5617 153.622 18.8063 153.805 23.2931C154.019 28.5365 153.977 33.7761 153.935 39.0191C153.925 40.1294 153.578 40.6029 152.399 40.67C148.232 40.9069 148.236 40.9458 148.227 36.7926C148.219 32.9535 148.261 29.1132 148.179 25.2756C148.099 21.6008 146.38 19.815 143.169 19.8699C140.05 19.9233 138.046 22.0887 138.013 25.548C137.972 29.8348 137.928 34.1236 138.021 38.4087C138.058 40.1212 137.417 40.7527 135.781 40.5894C135.211 40.5325 134.628 40.5453 134.055 40.5817C132.675 40.6693 132.092 40.0659 132.096 38.6661C132.123 28.3642 132.127 18.0621 132.101 7.76017C132.097 6.25389 132.727 5.80908 134.187 5.81301C137.978 5.82324 137.977 5.76268 137.989 9.47804C137.997 11.9733 138.005 14.4686 138.025 16.9637C138.025 17.0636 138.142 17.1626 138.269 17.3646C140.525 15.2472 143.117 14.0895 146.423 14.6482Z" fill="#0E2740"/>
</svg>
