<svg width="297" height="20" viewBox="0 0 297 20" fill="none" xmlns="http://www.w3.org/2000/svg">
<path d="M9.60404 1.91274C9.64056 1.83895 9.69697 1.77685 9.76692 1.73342C9.83686 1.69 9.91755 1.66699 9.99987 1.66699C10.0822 1.66699 10.1629 1.69 10.2328 1.73342C10.3028 1.77685 10.3592 1.83895 10.3957 1.91274L12.3207 5.8119C12.4475 6.06854 12.6347 6.29058 12.8662 6.45895C13.0977 6.62732 13.3666 6.737 13.6499 6.77857L17.9549 7.40857C18.0364 7.42039 18.1131 7.4548 18.1761 7.5079C18.2391 7.56101 18.2861 7.63069 18.3116 7.70908C18.337 7.78746 18.3401 7.87141 18.3204 7.95143C18.3006 8.03146 18.2589 8.10436 18.1999 8.1619L15.0865 11.1936C14.8812 11.3937 14.7276 11.6406 14.6389 11.9133C14.5502 12.1859 14.5291 12.476 14.5774 12.7586L15.3124 17.0419C15.3268 17.1234 15.318 17.2074 15.287 17.2841C15.2559 17.3609 15.204 17.4274 15.137 17.4761C15.07 17.5247 14.9907 17.5536 14.9081 17.5593C14.8255 17.5651 14.743 17.5475 14.6699 17.5086L10.8215 15.4852C10.568 15.3521 10.2859 15.2825 9.99946 15.2825C9.71306 15.2825 9.43094 15.3521 9.17737 15.4852L5.32987 17.5086C5.25681 17.5472 5.17437 17.5646 5.09191 17.5588C5.00946 17.5529 4.9303 17.524 4.86345 17.4754C4.7966 17.4268 4.74473 17.3604 4.71375 17.2838C4.68277 17.2071 4.67392 17.1233 4.68821 17.0419L5.42237 12.7594C5.47087 12.4767 5.44986 12.1864 5.36115 11.9136C5.27245 11.6408 5.11871 11.3937 4.91321 11.1936L1.79987 8.16274C1.74037 8.10526 1.6982 8.03223 1.67817 7.95197C1.65815 7.8717 1.66107 7.78742 1.6866 7.70873C1.71214 7.63004 1.75926 7.5601 1.8226 7.50689C1.88594 7.45367 1.96296 7.41932 2.04487 7.40774L6.34904 6.77857C6.63259 6.73732 6.90186 6.62778 7.13369 6.45939C7.36552 6.291 7.55296 6.0688 7.67987 5.8119L9.60404 1.91274Z" fill="#FCC800" stroke="#FCC800" stroke-width="1.66667" stroke-linecap="round" stroke-linejoin="round"/>
<path d="M33.604 1.91274C33.6406 1.83895 33.697 1.77685 33.7669 1.73342C33.8369 1.69 33.9175 1.66699 33.9999 1.66699C34.0822 1.66699 34.1629 1.69 34.2328 1.73342C34.3028 1.77685 34.3592 1.83895 34.3957 1.91274L36.3207 5.8119C36.4475 6.06854 36.6347 6.29058 36.8662 6.45895C37.0977 6.62732 37.3666 6.737 37.6499 6.77857L41.9549 7.40857C42.0364 7.42039 42.1131 7.4548 42.1761 7.5079C42.2391 7.56101 42.2861 7.63069 42.3116 7.70908C42.337 7.78746 42.3401 7.87141 42.3204 7.95143C42.3006 8.03146 42.2589 8.10436 42.1999 8.1619L39.0865 11.1936C38.8812 11.3937 38.7276 11.6406 38.6389 11.9133C38.5502 12.1859 38.5291 12.476 38.5774 12.7586L39.3124 17.0419C39.3268 17.1234 39.318 17.2074 39.287 17.2841C39.2559 17.3609 39.204 17.4274 39.137 17.4761C39.07 17.5247 38.9907 17.5536 38.9081 17.5593C38.8255 17.5651 38.743 17.5475 38.6699 17.5086L34.8215 15.4852C34.568 15.3521 34.2859 15.2825 33.9995 15.2825C33.7131 15.2825 33.4309 15.3521 33.1774 15.4852L29.3299 17.5086C29.2568 17.5472 29.1744 17.5646 29.0919 17.5588C29.0095 17.5529 28.9303 17.524 28.8635 17.4754C28.7966 17.4268 28.7447 17.3604 28.7138 17.2838C28.6828 17.2071 28.6739 17.1233 28.6882 17.0419L29.4224 12.7594C29.4709 12.4767 29.4499 12.1864 29.3612 11.9136C29.2724 11.6408 29.1187 11.3937 28.9132 11.1936L25.7999 8.16274C25.7404 8.10526 25.6982 8.03223 25.6782 7.95197C25.6581 7.8717 25.6611 7.78742 25.6866 7.70873C25.7121 7.63004 25.7593 7.5601 25.8226 7.50689C25.8859 7.45367 25.963 7.41932 26.0449 7.40774L30.349 6.77857C30.6326 6.73732 30.9019 6.62778 31.1337 6.45939C31.3655 6.291 31.553 6.0688 31.6799 5.8119L33.604 1.91274Z" fill="#FCC800" stroke="#FCC800" stroke-width="1.66667" stroke-linecap="round" stroke-linejoin="round"/>
<path d="M57.604 1.91274C57.6406 1.83895 57.697 1.77685 57.7669 1.73342C57.8369 1.69 57.9175 1.66699 57.9999 1.66699C58.0822 1.66699 58.1629 1.69 58.2328 1.73342C58.3028 1.77685 58.3592 1.83895 58.3957 1.91274L60.3207 5.8119C60.4475 6.06854 60.6347 6.29058 60.8662 6.45895C61.0977 6.62732 61.3666 6.737 61.6499 6.77857L65.9549 7.40857C66.0364 7.42039 66.1131 7.4548 66.1761 7.5079C66.2391 7.56101 66.2861 7.63069 66.3116 7.70908C66.337 7.78746 66.3401 7.87141 66.3204 7.95143C66.3006 8.03146 66.2589 8.10436 66.1999 8.1619L63.0865 11.1936C62.8812 11.3937 62.7276 11.6406 62.6389 11.9133C62.5502 12.1859 62.5291 12.476 62.5774 12.7586L63.3124 17.0419C63.3268 17.1234 63.318 17.2074 63.287 17.2841C63.2559 17.3609 63.204 17.4274 63.137 17.4761C63.07 17.5247 62.9907 17.5536 62.9081 17.5593C62.8255 17.5651 62.743 17.5475 62.6699 17.5086L58.8215 15.4852C58.568 15.3521 58.2859 15.2825 57.9995 15.2825C57.7131 15.2825 57.4309 15.3521 57.1774 15.4852L53.3299 17.5086C53.2568 17.5472 53.1744 17.5646 53.0919 17.5588C53.0095 17.5529 52.9303 17.524 52.8635 17.4754C52.7966 17.4268 52.7447 17.3604 52.7138 17.2838C52.6828 17.2071 52.6739 17.1233 52.6882 17.0419L53.4224 12.7594C53.4709 12.4767 53.4499 12.1864 53.3612 11.9136C53.2724 11.6408 53.1187 11.3937 52.9132 11.1936L49.7999 8.16274C49.7404 8.10526 49.6982 8.03223 49.6782 7.95197C49.6581 7.8717 49.6611 7.78742 49.6866 7.70873C49.7121 7.63004 49.7593 7.5601 49.8226 7.50689C49.8859 7.45367 49.963 7.41932 50.0449 7.40774L54.349 6.77857C54.6326 6.73732 54.9019 6.62778 55.1337 6.45939C55.3655 6.291 55.553 6.0688 55.6799 5.8119L57.604 1.91274Z" fill="#FCC800" stroke="#FCC800" stroke-width="1.66667" stroke-linecap="round" stroke-linejoin="round"/>
<path d="M81.604 1.91274C81.6406 1.83895 81.697 1.77685 81.7669 1.73342C81.8369 1.69 81.9175 1.66699 81.9999 1.66699C82.0822 1.66699 82.1629 1.69 82.2328 1.73342C82.3028 1.77685 82.3592 1.83895 82.3957 1.91274L84.3207 5.8119C84.4475 6.06854 84.6347 6.29058 84.8662 6.45895C85.0977 6.62732 85.3666 6.737 85.6499 6.77857L89.9549 7.40857C90.0364 7.42039 90.1131 7.4548 90.1761 7.5079C90.2391 7.56101 90.2861 7.63069 90.3116 7.70908C90.337 7.78746 90.3401 7.87141 90.3204 7.95143C90.3006 8.03146 90.2589 8.10436 90.1999 8.1619L87.0865 11.1936C86.8812 11.3937 86.7276 11.6406 86.6389 11.9133C86.5502 12.1859 86.5291 12.476 86.5774 12.7586L87.3124 17.0419C87.3268 17.1234 87.318 17.2074 87.287 17.2841C87.2559 17.3609 87.204 17.4274 87.137 17.4761C87.07 17.5247 86.9907 17.5536 86.9081 17.5593C86.8255 17.5651 86.743 17.5475 86.6699 17.5086L82.8215 15.4852C82.568 15.3521 82.2859 15.2825 81.9995 15.2825C81.7131 15.2825 81.4309 15.3521 81.1774 15.4852L77.3299 17.5086C77.2568 17.5472 77.1744 17.5646 77.0919 17.5588C77.0095 17.5529 76.9303 17.524 76.8635 17.4754C76.7966 17.4268 76.7447 17.3604 76.7138 17.2838C76.6828 17.2071 76.6739 17.1233 76.6882 17.0419L77.4224 12.7594C77.4709 12.4767 77.4499 12.1864 77.3612 11.9136C77.2724 11.6408 77.1187 11.3937 76.9132 11.1936L73.7999 8.16274C73.7404 8.10526 73.6982 8.03223 73.6782 7.95197C73.6581 7.8717 73.6611 7.78742 73.6866 7.70873C73.7121 7.63004 73.7593 7.5601 73.8226 7.50689C73.8859 7.45367 73.963 7.41932 74.0449 7.40774L78.349 6.77857C78.6326 6.73732 78.9019 6.62778 79.1337 6.45939C79.3655 6.291 79.553 6.0688 79.6799 5.8119L81.604 1.91274Z" fill="#FCC800" stroke="#FCC800" stroke-width="1.66667" stroke-linecap="round" stroke-linejoin="round"/>
<path d="M105.604 1.91274C105.641 1.83895 105.697 1.77685 105.767 1.73342C105.837 1.69 105.918 1.66699 106 1.66699C106.082 1.66699 106.163 1.69 106.233 1.73342C106.303 1.77685 106.359 1.83895 106.396 1.91274L108.321 5.8119C108.448 6.06854 108.635 6.29058 108.866 6.45895C109.098 6.62732 109.367 6.737 109.65 6.77857L113.955 7.40857C114.036 7.42039 114.113 7.4548 114.176 7.5079C114.239 7.56101 114.286 7.63069 114.312 7.70908C114.337 7.78746 114.34 7.87141 114.32 7.95143C114.301 8.03146 114.259 8.10436 114.2 8.1619L111.087 11.1936C110.881 11.3937 110.728 11.6406 110.639 11.9133C110.55 12.1859 110.529 12.476 110.577 12.7586L111.312 17.0419C111.327 17.1234 111.318 17.2074 111.287 17.2841C111.256 17.3609 111.204 17.4274 111.137 17.4761C111.07 17.5247 110.991 17.5536 110.908 17.5593C110.826 17.5651 110.743 17.5475 110.67 17.5086L106.822 15.4852C106.568 15.3521 106.286 15.2825 105.999 15.2825C105.713 15.2825 105.431 15.3521 105.177 15.4852L101.33 17.5086C101.257 17.5472 101.174 17.5646 101.092 17.5588C101.009 17.5529 100.93 17.524 100.863 17.4754C100.797 17.4268 100.745 17.3604 100.714 17.2838C100.683 17.2071 100.674 17.1233 100.688 17.0419L101.422 12.7594C101.471 12.4767 101.45 12.1864 101.361 11.9136C101.272 11.6408 101.119 11.3937 100.913 11.1936L97.7999 8.16274C97.7404 8.10526 97.6982 8.03223 97.6782 7.95197C97.6581 7.8717 97.6611 7.78742 97.6866 7.70873C97.7121 7.63004 97.7593 7.5601 97.8226 7.50689C97.8859 7.45367 97.963 7.41932 98.0449 7.40774L102.349 6.77857C102.633 6.73732 102.902 6.62778 103.134 6.45939C103.366 6.291 103.553 6.0688 103.68 5.8119L105.604 1.91274Z" fill="#FCC800" stroke="#FCC800" stroke-width="1.66667" stroke-linecap="round" stroke-linejoin="round"/>
</svg>
