<svg width="64" height="64" viewBox="0 0 64 64" fill="none" xmlns="http://www.w3.org/2000/svg">
<rect width="64" height="64" rx="16" fill="url(#paint0_linear_1_2)"/>
<path d="M36.6362 33.1868L38.6562 44.5548C38.6788 44.6886 38.66 44.8262 38.6023 44.9491C38.5446 45.072 38.4508 45.1744 38.3334 45.2425C38.216 45.3106 38.0806 45.3413 37.9452 45.3304C37.8099 45.3195 37.6811 45.2675 37.5762 45.1814L32.8028 41.5988C32.5724 41.4266 32.2925 41.3336 32.0048 41.3336C31.7172 41.3336 31.4373 41.4266 31.2068 41.5988L26.4255 45.1801C26.3206 45.266 26.192 45.3179 26.0568 45.3288C25.9217 45.3398 25.7864 45.3092 25.669 45.2413C25.5517 45.1733 25.4579 45.0712 25.4 44.9485C25.3422 44.8259 25.3232 44.6885 25.3455 44.5548L27.3642 33.1868" stroke="white" stroke-width="2.66667" stroke-linecap="round" stroke-linejoin="round"/>
<path d="M32 34.6667C36.4183 34.6667 40 31.085 40 26.6667C40 22.2485 36.4183 18.6667 32 18.6667C27.5817 18.6667 24 22.2485 24 26.6667C24 31.085 27.5817 34.6667 32 34.6667Z" stroke="white" stroke-width="2.66667" stroke-linecap="round" stroke-linejoin="round"/>
<defs>
<linearGradient id="paint0_linear_1_2" x1="32" y1="0" x2="32" y2="64" gradientUnits="userSpaceOnUse">
<stop stop-color="#0993E9"/>
<stop offset="1" stop-color="#05A1E3"/>
</linearGradient>
</defs>
</svg>
