<svg width="64" height="64" viewBox="0 0 64 64" fill="none" xmlns="http://www.w3.org/2000/svg">
<rect width="64" height="64" rx="16" fill="url(#paint0_linear_1_2)"/>
<path d="M18.6665 28.6666C18.6665 27.1829 19.1166 25.7341 19.9573 24.5115C20.7981 23.289 21.9899 22.3502 23.3753 21.8192C24.7608 21.2882 26.2747 21.1899 27.7172 21.5374C29.1597 21.8848 30.4628 22.6617 31.4545 23.7653C31.5244 23.84 31.6088 23.8995 31.7026 23.9402C31.7964 23.9809 31.8976 24.002 31.9998 24.002C32.1021 24.002 32.2033 23.9809 32.2971 23.9402C32.3909 23.8995 32.4753 23.84 32.5452 23.7653C33.5338 22.6545 34.8372 21.8711 36.282 21.5194C37.7268 21.1678 39.2445 21.2644 40.633 21.7966C42.0215 22.3288 43.215 23.2712 44.0547 24.4985C44.8943 25.7258 45.3403 27.1797 45.3332 28.6666C45.3332 31.72 43.3332 34 41.3332 36L34.0105 43.084C33.7621 43.3693 33.4557 43.5985 33.1119 43.7564C32.7681 43.9142 32.3946 43.9971 32.0162 43.9995C31.6379 44.0019 31.2634 43.9238 30.9176 43.7703C30.5717 43.6168 30.2625 43.3915 30.0105 43.1093L22.6665 36C20.6665 34 18.6665 31.7333 18.6665 28.6666Z" stroke="white" stroke-width="2.66667" stroke-linecap="round" stroke-linejoin="round"/>
<defs>
<linearGradient id="paint0_linear_1_2" x1="32" y1="0" x2="32" y2="64" gradientUnits="userSpaceOnUse">
<stop stop-color="#0993E9"/>
<stop offset="1" stop-color="#05A1E3"/>
</linearGradient>
</defs>
</svg>
