<svg width="20" height="22" viewBox="0 0 20 22" fill="none" xmlns="http://www.w3.org/2000/svg">
<path d="M16.9857 9.99121H2.99736C1.89371 9.99121 0.999023 10.8859 0.999023 11.9895V18.9837C0.999023 20.0874 1.89371 20.982 2.99736 20.982H16.9857C18.0893 20.982 18.984 20.0874 18.984 18.9837V11.9895C18.984 10.8859 18.0893 9.99121 16.9857 9.99121Z" stroke="#155DFC" stroke-width="1.99833" stroke-linecap="round" stroke-linejoin="round"/>
<path d="M4.99561 9.99152V5.99486C4.99561 4.66988 5.52195 3.39917 6.45885 2.46227C7.39575 1.52537 8.66646 0.999023 9.99144 0.999023C11.3164 0.999023 12.5871 1.52537 13.524 2.46227C14.4609 3.39917 14.9873 4.66988 14.9873 5.99486V9.99152" stroke="#155DFC" stroke-width="1.99833" stroke-linecap="round" stroke-linejoin="round"/>
</svg>
