<svg width="128" height="128" viewBox="0 0 128 128" fill="none" xmlns="http://www.w3.org/2000/svg">
<rect width="127.99" height="127.99" rx="63.995" fill="url(#paint0_linear_216_2867)"/>
<path d="M71.9926 87.9872V74.658C71.9926 73.951 71.7117 73.2729 71.2118 72.773C70.7118 72.2731 70.0337 71.9922 69.3267 71.9922H58.6634C57.9564 71.9922 57.2783 72.2731 56.7784 72.773C56.2784 73.2729 55.9976 73.951 55.9976 74.658V87.9872" stroke="white" stroke-width="5.33167" stroke-linecap="round" stroke-linejoin="round"/>
<path d="M79.3873 59.4895C78.8316 58.9575 78.0919 58.6605 77.3226 58.6605C76.5533 58.6605 75.8137 58.9575 75.2579 59.4895C74.0183 60.6718 72.3711 61.3315 70.658 61.3315C68.945 61.3315 67.2977 60.6718 66.0581 59.4895C65.5025 58.9583 64.7635 58.6618 63.9948 58.6618C63.2261 58.6618 62.487 58.9583 61.9314 59.4895C60.6917 60.6726 59.0439 61.3327 57.3302 61.3327C55.6165 61.3327 53.9687 60.6726 52.729 59.4895C52.1733 58.9575 51.4336 58.6605 50.6643 58.6605C49.895 58.6605 49.1553 58.9575 48.5996 59.4895C47.4022 60.6321 45.8225 61.2883 44.168 61.3304C42.5135 61.3725 40.9025 60.7974 39.6486 59.7171C38.3947 58.6368 37.5876 57.1286 37.3844 55.4861C37.1812 53.8435 37.5965 52.1841 38.5494 50.8309L46.251 39.677C46.7397 38.956 47.3976 38.3656 48.1671 37.9576C48.9367 37.5495 49.7946 37.3363 50.6656 37.3364H77.324C78.1925 37.3361 79.0479 37.5479 79.8159 37.9535C80.5839 38.3591 81.2412 38.9462 81.7306 39.6637L89.4482 50.8389C90.4013 52.1932 90.816 53.8538 90.6116 55.4972C90.4072 57.1407 89.5982 58.6491 88.3423 59.7286C87.0864 60.8081 85.4736 61.3814 83.8181 61.3367C82.1627 61.292 80.5831 60.6325 79.3873 59.4868" stroke="white" stroke-width="5.33167" stroke-linecap="round" stroke-linejoin="round"/>
<path d="M42.6685 61.1958V82.6558C42.6685 84.0698 43.2302 85.4259 44.2301 86.4258C45.2299 87.4257 46.5861 87.9874 48.0001 87.9874H79.9901C81.4042 87.9874 82.7603 87.4257 83.7602 86.4258C84.7601 85.4259 85.3218 84.0698 85.3218 82.6558V61.1958" stroke="white" stroke-width="5.33167" stroke-linecap="round" stroke-linejoin="round"/>
<defs>
<linearGradient id="paint0_linear_216_2867" x1="0" y1="0" x2="127.99" y2="127.99" gradientUnits="userSpaceOnUse">
<stop stop-color="#155DFC"/>
<stop offset="1" stop-color="#00B8DB"/>
</linearGradient>
</defs>
</svg>
