<svg width="48" height="48" viewBox="0 0 48 48" fill="none" xmlns="http://www.w3.org/2000/svg">
<rect width="47.99" height="47.99" rx="10" fill="#DBEAFE"/>
<path d="M31.9881 24.9942C31.9881 29.99 28.491 32.488 24.3345 33.9368C24.1169 34.0105 23.8804 34.007 23.6651 33.9268C19.4985 32.488 16.0015 29.99 16.0015 24.9942V18C16.0015 17.735 16.1067 17.4809 16.2941 17.2935C16.4815 17.1061 16.7356 17.0009 17.0006 17.0009C18.999 17.0009 21.4969 15.8019 23.2354 14.2831C23.4471 14.1023 23.7164 14.0029 23.9948 14.0029C24.2732 14.0029 24.5425 14.1023 24.7542 14.2831C26.5027 15.8119 28.9906 17.0009 30.989 17.0009C31.254 17.0009 31.5081 17.1061 31.6955 17.2935C31.8829 17.4809 31.9881 17.735 31.9881 18V24.9942Z" stroke="#155DFC" stroke-width="1.99833" stroke-linecap="round" stroke-linejoin="round"/>
</svg>
