<svg width="48" height="48" viewBox="0 0 48 48" fill="none" xmlns="http://www.w3.org/2000/svg">
<rect width="47.99" height="47.99" rx="10" fill="#DBEAFE"/>
<path d="M21.6677 16.1373C21.7228 15.5581 21.9918 15.0203 22.4222 14.6289C22.8526 14.2374 23.4135 14.0205 23.9953 14.0205C24.5771 14.0205 25.138 14.2374 25.5684 14.6289C25.9988 15.0203 26.2678 15.5581 26.3229 16.1373C26.3559 16.5115 26.4787 16.8721 26.6807 17.1888C26.8827 17.5054 27.158 17.7688 27.4833 17.9565C27.8087 18.1442 28.1745 18.2508 28.5497 18.2672C28.9249 18.2836 29.2986 18.2093 29.6391 18.0507C30.1678 17.8107 30.7668 17.776 31.3197 17.9533C31.8725 18.1306 32.3397 18.5073 32.6301 19.01C32.9206 19.5128 33.0136 20.1056 32.891 20.6731C32.7685 21.2406 32.4392 21.7423 31.9671 22.0804C31.6598 22.296 31.4089 22.5825 31.2357 22.9157C31.0625 23.2488 30.972 23.6188 30.972 23.9943C30.972 24.3697 31.0625 24.7397 31.2357 25.0728C31.4089 25.406 31.6598 25.6925 31.9671 25.9082C32.4392 26.2463 32.7685 26.7479 32.891 27.3154C33.0136 27.8829 32.9206 28.4758 32.6301 28.9785C32.3397 29.4812 31.8725 29.8579 31.3197 30.0352C30.7668 30.2126 30.1678 30.1778 29.6391 29.9378C29.2986 29.7792 28.9249 29.705 28.5497 29.7214C28.1745 29.7378 27.8087 29.8443 27.4833 30.032C27.158 30.2198 26.8827 30.4831 26.6807 30.7997C26.4787 31.1164 26.3559 31.4771 26.3229 31.8512C26.2678 32.4304 25.9988 32.9682 25.5684 33.3597C25.138 33.7511 24.5771 33.968 23.9953 33.968C23.4135 33.968 22.8526 33.7511 22.4222 33.3597C21.9918 32.9682 21.7228 32.4304 21.6677 31.8512C21.6347 31.4769 21.512 31.1161 21.3099 30.7994C21.1078 30.4826 20.8324 30.2192 20.5069 30.0315C20.1815 29.8437 19.8155 29.7372 19.4402 29.7209C19.0648 29.7046 18.691 29.779 18.3505 29.9378C17.8218 30.1778 17.2228 30.2126 16.6699 30.0352C16.117 29.8579 15.6499 29.4812 15.3595 28.9785C15.069 28.4758 14.976 27.8829 15.0986 27.3154C15.2211 26.7479 15.5504 26.2463 16.0224 25.9082C16.3298 25.6925 16.5807 25.406 16.7539 25.0728C16.9271 24.7397 17.0176 24.3697 17.0176 23.9943C17.0176 23.6188 16.9271 23.2488 16.7539 22.9157C16.5807 22.5825 16.3298 22.296 16.0224 22.0804C15.5511 21.7421 15.2224 21.2407 15.1001 20.6735C14.9779 20.1064 15.0708 19.514 15.361 19.0116C15.6511 18.5092 16.1177 18.1326 16.67 17.955C17.2223 17.7775 17.8209 17.8116 18.3495 18.0507C18.69 18.2093 19.0637 18.2836 19.4389 18.2672C19.8141 18.2508 20.1799 18.1442 20.5052 17.9565C20.8306 17.7688 21.1059 17.5054 21.3079 17.1888C21.5099 16.8721 21.6326 16.5115 21.6657 16.1373" stroke="#155DFC" stroke-width="1.99833" stroke-linecap="round" stroke-linejoin="round"/>
<path d="M23.9951 26.9926C25.6505 26.9926 26.9926 25.6505 26.9926 23.9951C26.9926 22.3396 25.6505 20.9976 23.9951 20.9976C22.3396 20.9976 20.9976 22.3396 20.9976 23.9951C20.9976 25.6505 22.3396 26.9926 23.9951 26.9926Z" stroke="#155DFC" stroke-width="1.99833" stroke-linecap="round" stroke-linejoin="round"/>
</svg>
