<svg width="48" height="48" viewBox="0 0 48 48" fill="none" xmlns="http://www.w3.org/2000/svg">
<rect width="47.99" height="47.99" rx="10" fill="#DBEAFE"/>
<path d="M15.0024 25.9933H17.9999C18.5299 25.9933 19.0382 26.2038 19.413 26.5786C19.7877 26.9533 19.9983 27.4616 19.9983 27.9916V30.9891C19.9983 31.5191 19.7877 32.0274 19.413 32.4021C19.0382 32.7769 18.5299 32.9874 17.9999 32.9874H17.0008C16.4708 32.9874 15.9625 32.7769 15.5877 32.4021C15.213 32.0274 15.0024 31.5191 15.0024 30.9891V23.9949C15.0024 21.61 15.9499 19.3227 17.6363 17.6363C19.3227 15.9499 21.61 15.0024 23.9949 15.0024C26.3799 15.0024 28.6672 15.9499 30.3536 17.6363C32.04 19.3227 32.9874 21.61 32.9874 23.9949V30.9891C32.9874 31.5191 32.7769 32.0274 32.4021 32.4021C32.0274 32.7769 31.5191 32.9874 30.9891 32.9874H29.9899C29.46 32.9874 28.9517 32.7769 28.5769 32.4021C28.2021 32.0274 27.9916 31.5191 27.9916 30.9891V27.9916C27.9916 27.4616 28.2021 26.9533 28.5769 26.5786C28.9517 26.2038 29.46 25.9933 29.9899 25.9933H32.9874" stroke="#155DFC" stroke-width="1.99833" stroke-linecap="round" stroke-linejoin="round"/>
</svg>
