<svg width="36" height="36" viewBox="0 0 36 36" fill="none" xmlns="http://www.w3.org/2000/svg">
<rect width="36" height="36" rx="18" fill="#1E2939"/>
<path d="M21.3335 11.3335H14.6668C12.8259 11.3335 11.3335 12.8259 11.3335 14.6668V21.3335C11.3335 23.1744 12.8259 24.6668 14.6668 24.6668H21.3335C23.1744 24.6668 24.6668 23.1744 24.6668 21.3335V14.6668C24.6668 12.8259 23.1744 11.3335 21.3335 11.3335Z" stroke="white" stroke-width="1.33333" stroke-linecap="round" stroke-linejoin="round"/>
<path d="M20.6668 17.5802C20.7491 18.135 20.6543 18.7017 20.396 19.1995C20.1376 19.6974 19.7289 20.1011 19.2279 20.3533C18.7269 20.6055 18.1591 20.6933 17.6053 20.6042C17.0515 20.515 16.54 20.2536 16.1434 19.857C15.7467 19.4604 15.4853 18.9488 15.3962 18.395C15.3071 17.8412 15.3948 17.2735 15.647 16.7725C15.8992 16.2714 16.3029 15.8627 16.8008 15.6044C17.2987 15.346 17.8653 15.2513 18.4201 15.3335C18.9861 15.4175 19.51 15.6812 19.9146 16.0857C20.3192 16.4903 20.5829 17.0143 20.6668 17.5802Z" stroke="white" stroke-width="1.33333" stroke-linecap="round" stroke-linejoin="round"/>
<path d="M21.6665 14.3335H21.6732" stroke="white" stroke-width="1.33333" stroke-linecap="round" stroke-linejoin="round"/>
</svg>
