<svg width="36" height="36" viewBox="0 0 36 36" fill="none" xmlns="http://www.w3.org/2000/svg">
<rect width="36" height="36" rx="18" fill="#1E2939"/>
<path d="M20.6665 15.3335C21.7274 15.3335 22.7448 15.7549 23.4949 16.5051C24.2451 17.2552 24.6665 18.2726 24.6665 19.3335V24.0002H21.9998V19.3335C21.9998 18.9799 21.8594 18.6407 21.6093 18.3907C21.3593 18.1406 21.0201 18.0002 20.6665 18.0002C20.3129 18.0002 19.9737 18.1406 19.7237 18.3907C19.4736 18.6407 19.3332 18.9799 19.3332 19.3335V24.0002H16.6665V19.3335C16.6665 18.2726 17.0879 17.2552 17.8381 16.5051C18.5882 15.7549 19.6056 15.3335 20.6665 15.3335Z" stroke="white" stroke-width="1.33333" stroke-linecap="round" stroke-linejoin="round"/>
<path d="M14.0002 16H11.3335V24H14.0002V16Z" stroke="white" stroke-width="1.33333" stroke-linecap="round" stroke-linejoin="round"/>
<path d="M12.6665 13.9995C13.4027 13.9995 13.9995 13.4027 13.9995 12.6665C13.9995 11.9303 13.4027 11.3335 12.6665 11.3335C11.9303 11.3335 11.3335 11.9303 11.3335 12.6665C11.3335 13.4027 11.9303 13.9995 12.6665 13.9995Z" stroke="white" stroke-width="1.33333" stroke-linecap="round" stroke-linejoin="round"/>
</svg>
