<svg width="22" height="22" viewBox="0 0 22 22" fill="none" xmlns="http://www.w3.org/2000/svg">
<path d="M1.98989 15.3288C2.1368 15.6994 2.16951 16.1055 2.08381 16.4948L1.0197 19.7821C0.98541 19.9488 0.994275 20.1215 1.04545 20.2838C1.09663 20.4461 1.18842 20.5927 1.31212 20.7096C1.43582 20.8264 1.58733 20.9098 1.75229 20.9517C1.91724 20.9936 2.09017 20.9927 2.25467 20.9491L5.66482 19.9519C6.03223 19.879 6.41273 19.9109 6.76291 20.0438C8.89651 21.0402 11.3135 21.251 13.5874 20.6391C15.8613 20.0271 17.8459 18.6317 19.1912 16.699C20.5365 14.7663 21.156 12.4206 20.9404 10.0757C20.7247 7.73079 19.6878 5.5374 18.0126 3.88251C16.3374 2.22762 14.1315 1.21757 11.7841 1.03059C9.43674 0.843602 7.09876 1.49169 5.18267 2.8605C3.26657 4.22932 1.8955 6.2309 1.31135 8.51209C0.727197 10.7933 0.96751 13.2075 1.98989 15.3288Z" stroke="#155DFC" stroke-width="1.99833" stroke-linecap="round" stroke-linejoin="round"/>
</svg>
