<svg width="48" height="48" viewBox="0 0 48 48" fill="none" xmlns="http://www.w3.org/2000/svg">
<rect width="47.99" height="47.99" rx="10" fill="#DBEAFE"/>
<path d="M22.2642 32.9873C22.4396 33.2911 22.6919 33.5434 22.9957 33.7188C23.2996 33.8942 23.6442 33.9866 23.995 33.9866C24.3459 33.9866 24.6905 33.8942 24.9943 33.7188C25.2982 33.5434 25.5505 33.2911 25.7259 32.9873" stroke="#155DFC" stroke-width="1.99833" stroke-linecap="round" stroke-linejoin="round"/>
<path d="M15.264 27.3183C15.1335 27.4614 15.0473 27.6393 15.016 27.8304C14.9848 28.0215 15.0097 28.2176 15.0878 28.3948C15.166 28.572 15.2939 28.7227 15.4561 28.8285C15.6183 28.9344 15.8077 28.9908 16.0014 28.9909H31.988C32.1817 28.991 32.3712 28.9348 32.5334 28.8292C32.6957 28.7235 32.8238 28.573 32.9022 28.3959C32.9805 28.2188 33.0057 28.0228 32.9747 27.8317C32.9436 27.6405 32.8577 27.4625 32.7274 27.3193C31.3985 25.9495 29.9897 24.4937 29.9897 19.9984C29.9897 18.4084 29.3581 16.8836 28.2338 15.7593C27.1095 14.635 25.5847 14.0034 23.9947 14.0034C22.4047 14.0034 20.8799 14.635 19.7556 15.7593C18.6313 16.8836 17.9997 18.4084 17.9997 19.9984C17.9997 24.4937 16.5899 25.9495 15.264 27.3183Z" stroke="#155DFC" stroke-width="1.99833" stroke-linecap="round" stroke-linejoin="round"/>
</svg>
