<svg width="628" height="628" viewBox="0 0 628 628" fill="none" xmlns="http://www.w3.org/2000/svg">
<g filter="url(#filter0_d_216_2865)">
<rect x="38" y="13" width="551.99" height="551.99" rx="16" fill="url(#paint0_linear_216_2865)"/>
<rect x="249.99" y="181.03" width="127.99" height="127.99" rx="63.995" fill="url(#paint1_linear_216_2865)"/>
<path d="M321.982 269.017V255.688C321.982 254.981 321.701 254.303 321.201 253.803C320.702 253.303 320.023 253.022 319.316 253.022H308.653C307.946 253.022 307.268 253.303 306.768 253.803C306.268 254.303 305.987 254.981 305.987 255.688V269.017" stroke="white" stroke-width="5.33167" stroke-linecap="round" stroke-linejoin="round"/>
<path d="M329.377 240.52C328.821 239.988 328.082 239.691 327.312 239.691C326.543 239.691 325.803 239.988 325.248 240.52C324.008 241.702 322.361 242.362 320.648 242.362C318.935 242.362 317.287 241.702 316.048 240.52C315.492 239.989 314.753 239.692 313.985 239.692C313.216 239.692 312.477 239.989 311.921 240.52C310.681 241.703 309.034 242.363 307.32 242.363C305.606 242.363 303.958 241.703 302.719 240.52C302.163 239.988 301.423 239.691 300.654 239.691C299.885 239.691 299.145 239.988 298.589 240.52C297.392 241.662 295.812 242.319 294.158 242.361C292.503 242.403 290.892 241.828 289.638 240.747C288.384 239.667 287.577 238.159 287.374 236.516C287.171 234.874 287.586 233.214 288.539 231.861L296.241 220.707C296.729 219.986 297.387 219.396 298.157 218.988C298.926 218.58 299.784 218.367 300.655 218.367H327.314C328.182 218.366 329.038 218.578 329.806 218.984C330.574 219.389 331.231 219.976 331.72 220.694L339.438 231.869C340.391 233.223 340.806 234.884 340.601 236.528C340.397 238.171 339.588 239.679 338.332 240.759C337.076 241.838 335.463 242.412 333.808 242.367C332.152 242.322 330.573 241.663 329.377 240.517" stroke="white" stroke-width="5.33167" stroke-linecap="round" stroke-linejoin="round"/>
<path d="M292.658 242.226V263.686C292.658 265.1 293.22 266.456 294.22 267.456C295.22 268.456 296.576 269.018 297.99 269.018H329.98C331.394 269.018 332.75 268.456 333.75 267.456C334.75 266.456 335.312 265.1 335.312 263.686V242.226" stroke="white" stroke-width="5.33167" stroke-linecap="round" stroke-linejoin="round"/>
<path d="M254.822 352H248.884V340.797H254.572V341.984H250.197V345.711H254.244V346.891H250.197V350.812H254.822V352ZM268.166 352H266.884V347.406C266.884 346.521 266.746 345.88 266.47 345.484C266.199 345.089 265.741 344.891 265.095 344.891C264.548 344.891 264.082 345.141 263.697 345.641C263.317 346.141 263.126 346.74 263.126 347.438V352H261.845V347.25C261.845 345.677 261.238 344.891 260.025 344.891C259.462 344.891 258.999 345.128 258.634 345.602C258.27 346.07 258.087 346.682 258.087 347.438V352H256.806V344H258.087V345.266H258.119C258.686 344.297 259.514 343.812 260.603 343.812C261.15 343.812 261.626 343.966 262.033 344.273C262.439 344.576 262.718 344.974 262.869 345.469C263.462 344.365 264.348 343.812 265.525 343.812C267.285 343.812 268.166 344.898 268.166 347.07V352ZM271.9 350.844H271.869V355.68H270.587V344H271.869V345.406H271.9C272.53 344.344 273.452 343.812 274.666 343.812C275.697 343.812 276.501 344.172 277.08 344.891C277.658 345.604 277.947 346.562 277.947 347.766C277.947 349.104 277.621 350.177 276.97 350.984C276.319 351.786 275.429 352.188 274.298 352.188C273.262 352.188 272.462 351.74 271.9 350.844ZM271.869 347.617V348.734C271.869 349.396 272.082 349.958 272.509 350.422C272.942 350.88 273.488 351.109 274.15 351.109C274.926 351.109 275.533 350.812 275.97 350.219C276.413 349.625 276.634 348.799 276.634 347.742C276.634 346.852 276.429 346.154 276.017 345.648C275.606 345.143 275.048 344.891 274.345 344.891C273.6 344.891 273.001 345.151 272.548 345.672C272.095 346.188 271.869 346.836 271.869 347.617ZM284.166 345.297C283.942 345.125 283.619 345.039 283.197 345.039C282.65 345.039 282.192 345.297 281.822 345.812C281.457 346.328 281.275 347.031 281.275 347.922V352H279.994V344H281.275V345.648H281.306C281.488 345.086 281.767 344.648 282.142 344.336C282.517 344.018 282.936 343.859 283.4 343.859C283.733 343.859 283.988 343.896 284.166 343.969V345.297ZM291.986 348.32H286.337C286.358 349.211 286.598 349.898 287.056 350.383C287.514 350.867 288.145 351.109 288.947 351.109C289.848 351.109 290.676 350.812 291.431 350.219V351.422C290.728 351.932 289.798 352.188 288.642 352.188C287.512 352.188 286.624 351.826 285.978 351.102C285.332 350.372 285.009 349.349 285.009 348.031C285.009 346.786 285.361 345.773 286.064 344.992C286.772 344.206 287.65 343.812 288.697 343.812C289.744 343.812 290.554 344.151 291.126 344.828C291.699 345.505 291.986 346.445 291.986 347.648V348.32ZM290.673 347.234C290.668 346.495 290.488 345.919 290.134 345.508C289.785 345.096 289.298 344.891 288.673 344.891C288.069 344.891 287.556 345.107 287.134 345.539C286.712 345.971 286.452 346.536 286.353 347.234H290.673ZM293.447 351.711V350.336C294.145 350.852 294.913 351.109 295.751 351.109C296.876 351.109 297.439 350.734 297.439 349.984C297.439 349.771 297.389 349.591 297.291 349.445C297.197 349.294 297.067 349.161 296.9 349.047C296.738 348.932 296.546 348.831 296.322 348.742C296.103 348.648 295.866 348.552 295.611 348.453C295.257 348.312 294.944 348.172 294.673 348.031C294.408 347.885 294.184 347.724 294.001 347.547C293.824 347.365 293.689 347.159 293.595 346.93C293.507 346.701 293.462 346.432 293.462 346.125C293.462 345.75 293.548 345.419 293.72 345.133C293.892 344.841 294.121 344.599 294.408 344.406C294.694 344.208 295.02 344.06 295.384 343.961C295.754 343.862 296.134 343.812 296.525 343.812C297.218 343.812 297.837 343.932 298.384 344.172V345.469C297.796 345.083 297.119 344.891 296.353 344.891C296.113 344.891 295.897 344.919 295.705 344.977C295.512 345.029 295.345 345.104 295.205 345.203C295.069 345.302 294.962 345.422 294.884 345.562C294.811 345.698 294.775 345.849 294.775 346.016C294.775 346.224 294.811 346.398 294.884 346.539C294.962 346.68 295.074 346.805 295.22 346.914C295.366 347.023 295.543 347.122 295.751 347.211C295.96 347.299 296.197 347.396 296.462 347.5C296.817 347.635 297.134 347.776 297.416 347.922C297.697 348.062 297.936 348.224 298.134 348.406C298.332 348.583 298.483 348.789 298.587 349.023C298.697 349.258 298.751 349.536 298.751 349.859C298.751 350.255 298.663 350.599 298.486 350.891C298.314 351.182 298.082 351.424 297.791 351.617C297.499 351.81 297.163 351.953 296.783 352.047C296.403 352.141 296.004 352.188 295.587 352.188C294.764 352.188 294.051 352.029 293.447 351.711ZM306.455 352H305.173V350.75H305.142C304.585 351.708 303.764 352.188 302.681 352.188C301.884 352.188 301.259 351.977 300.806 351.555C300.358 351.133 300.134 350.573 300.134 349.875C300.134 348.38 301.014 347.51 302.775 347.266L305.173 346.93C305.173 345.57 304.624 344.891 303.525 344.891C302.561 344.891 301.692 345.219 300.916 345.875V344.562C301.702 344.062 302.608 343.812 303.634 343.812C305.514 343.812 306.455 344.807 306.455 346.797V352ZM305.173 347.953L303.244 348.219C302.65 348.302 302.202 348.451 301.9 348.664C301.598 348.872 301.447 349.245 301.447 349.781C301.447 350.172 301.585 350.492 301.861 350.742C302.142 350.987 302.514 351.109 302.978 351.109C303.613 351.109 304.137 350.888 304.548 350.445C304.965 349.997 305.173 349.432 305.173 348.75V347.953ZM308.384 351.711V350.336C309.082 350.852 309.85 351.109 310.689 351.109C311.814 351.109 312.376 350.734 312.376 349.984C312.376 349.771 312.327 349.591 312.228 349.445C312.134 349.294 312.004 349.161 311.837 349.047C311.676 348.932 311.483 348.831 311.259 348.742C311.041 348.648 310.804 348.552 310.548 348.453C310.194 348.312 309.882 348.172 309.611 348.031C309.345 347.885 309.121 347.724 308.939 347.547C308.762 347.365 308.626 347.159 308.533 346.93C308.444 346.701 308.4 346.432 308.4 346.125C308.4 345.75 308.486 345.419 308.658 345.133C308.83 344.841 309.059 344.599 309.345 344.406C309.632 344.208 309.957 344.06 310.322 343.961C310.692 343.862 311.072 343.812 311.462 343.812C312.155 343.812 312.775 343.932 313.322 344.172V345.469C312.733 345.083 312.056 344.891 311.291 344.891C311.051 344.891 310.835 344.919 310.642 344.977C310.449 345.029 310.283 345.104 310.142 345.203C310.007 345.302 309.9 345.422 309.822 345.562C309.749 345.698 309.712 345.849 309.712 346.016C309.712 346.224 309.749 346.398 309.822 346.539C309.9 346.68 310.012 346.805 310.158 346.914C310.304 347.023 310.481 347.122 310.689 347.211C310.897 347.299 311.134 347.396 311.4 347.5C311.754 347.635 312.072 347.776 312.353 347.922C312.634 348.062 312.874 348.224 313.072 348.406C313.27 348.583 313.421 348.789 313.525 349.023C313.634 349.258 313.689 349.536 313.689 349.859C313.689 350.255 313.6 350.599 313.423 350.891C313.251 351.182 313.02 351.424 312.728 351.617C312.436 351.81 312.1 351.953 311.72 352.047C311.34 352.141 310.942 352.188 310.525 352.188C309.702 352.188 308.988 352.029 308.384 351.711ZM321.541 347.766V352H320.228V340.797H323.306C324.504 340.797 325.431 341.089 326.087 341.672C326.749 342.255 327.08 343.078 327.08 344.141C327.08 345.203 326.712 346.073 325.978 346.75C325.249 347.427 324.262 347.766 323.017 347.766H321.541ZM321.541 341.984V346.578H322.916C323.822 346.578 324.512 346.372 324.986 345.961C325.465 345.544 325.705 344.958 325.705 344.203C325.705 342.724 324.83 341.984 323.08 341.984H321.541ZM334.205 352H332.923V350.75H332.892C332.335 351.708 331.514 352.188 330.431 352.188C329.634 352.188 329.009 351.977 328.556 351.555C328.108 351.133 327.884 350.573 327.884 349.875C327.884 348.38 328.764 347.51 330.525 347.266L332.923 346.93C332.923 345.57 332.374 344.891 331.275 344.891C330.311 344.891 329.442 345.219 328.666 345.875V344.562C329.452 344.062 330.358 343.812 331.384 343.812C333.264 343.812 334.205 344.807 334.205 346.797V352ZM332.923 347.953L330.994 348.219C330.4 348.302 329.952 348.451 329.65 348.664C329.348 348.872 329.197 349.245 329.197 349.781C329.197 350.172 329.335 350.492 329.611 350.742C329.892 350.987 330.264 351.109 330.728 351.109C331.363 351.109 331.887 350.888 332.298 350.445C332.715 349.997 332.923 349.432 332.923 348.75V347.953ZM340.791 345.297C340.567 345.125 340.244 345.039 339.822 345.039C339.275 345.039 338.817 345.297 338.447 345.812C338.082 346.328 337.9 347.031 337.9 347.922V352H336.619V344H337.9V345.648H337.931C338.113 345.086 338.392 344.648 338.767 344.336C339.142 344.018 339.561 343.859 340.025 343.859C340.358 343.859 340.613 343.896 340.791 343.969V345.297ZM347.634 351.633C347.02 352.003 346.291 352.188 345.447 352.188C344.306 352.188 343.384 351.818 342.681 351.078C341.983 350.333 341.634 349.37 341.634 348.188C341.634 346.87 342.012 345.812 342.767 345.016C343.522 344.214 344.53 343.812 345.791 343.812C346.494 343.812 347.113 343.943 347.65 344.203V345.516C347.056 345.099 346.421 344.891 345.744 344.891C344.926 344.891 344.254 345.185 343.728 345.773C343.207 346.357 342.947 347.125 342.947 348.078C342.947 349.016 343.192 349.755 343.681 350.297C344.176 350.839 344.837 351.109 345.666 351.109C346.363 351.109 347.02 350.878 347.634 350.414V351.633ZM356.001 348.32H350.353C350.374 349.211 350.613 349.898 351.072 350.383C351.53 350.867 352.16 351.109 352.962 351.109C353.863 351.109 354.692 350.812 355.447 350.219V351.422C354.744 351.932 353.814 352.188 352.658 352.188C351.528 352.188 350.639 351.826 349.994 351.102C349.348 350.372 349.025 349.349 349.025 348.031C349.025 346.786 349.376 345.773 350.08 344.992C350.788 344.206 351.666 343.812 352.712 343.812C353.759 343.812 354.569 344.151 355.142 344.828C355.715 345.505 356.001 346.445 356.001 347.648V348.32ZM354.689 347.234C354.684 346.495 354.504 345.919 354.15 345.508C353.801 345.096 353.314 344.891 352.689 344.891C352.085 344.891 351.572 345.107 351.15 345.539C350.728 345.971 350.468 346.536 350.369 347.234H354.689ZM358.603 341.969C358.374 341.969 358.179 341.891 358.017 341.734C357.856 341.578 357.775 341.38 357.775 341.141C357.775 340.901 357.856 340.703 358.017 340.547C358.179 340.385 358.374 340.305 358.603 340.305C358.837 340.305 359.035 340.385 359.197 340.547C359.363 340.703 359.447 340.901 359.447 341.141C359.447 341.37 359.363 341.565 359.197 341.727C359.035 341.888 358.837 341.969 358.603 341.969ZM359.228 352H357.947V344H359.228V352ZM365.994 345.297C365.77 345.125 365.447 345.039 365.025 345.039C364.478 345.039 364.02 345.297 363.65 345.812C363.285 346.328 363.103 347.031 363.103 347.922V352H361.822V344H363.103V345.648H363.134C363.317 345.086 363.595 344.648 363.97 344.336C364.345 344.018 364.764 343.859 365.228 343.859C365.561 343.859 365.817 343.896 365.994 343.969V345.297ZM373.111 352H371.83V350.75H371.798C371.241 351.708 370.421 352.188 369.337 352.188C368.541 352.188 367.916 351.977 367.462 351.555C367.014 351.133 366.791 350.573 366.791 349.875C366.791 348.38 367.671 347.51 369.431 347.266L371.83 346.93C371.83 345.57 371.28 344.891 370.181 344.891C369.218 344.891 368.348 345.219 367.572 345.875V344.562C368.358 344.062 369.264 343.812 370.291 343.812C372.171 343.812 373.111 344.807 373.111 346.797V352ZM371.83 347.953L369.9 348.219C369.306 348.302 368.858 348.451 368.556 348.664C368.254 348.872 368.103 349.245 368.103 349.781C368.103 350.172 368.241 350.492 368.517 350.742C368.798 350.987 369.171 351.109 369.634 351.109C370.27 351.109 370.793 350.888 371.205 350.445C371.621 349.997 371.83 349.432 371.83 348.75V347.953ZM375.041 351.711V350.336C375.738 350.852 376.507 351.109 377.345 351.109C378.47 351.109 379.033 350.734 379.033 349.984C379.033 349.771 378.983 349.591 378.884 349.445C378.791 349.294 378.66 349.161 378.494 349.047C378.332 348.932 378.139 348.831 377.916 348.742C377.697 348.648 377.46 348.552 377.205 348.453C376.85 348.312 376.538 348.172 376.267 348.031C376.001 347.885 375.778 347.724 375.595 347.547C375.418 347.365 375.283 347.159 375.189 346.93C375.1 346.701 375.056 346.432 375.056 346.125C375.056 345.75 375.142 345.419 375.314 345.133C375.486 344.841 375.715 344.599 376.001 344.406C376.288 344.208 376.613 344.06 376.978 343.961C377.348 343.862 377.728 343.812 378.119 343.812C378.811 343.812 379.431 343.932 379.978 344.172V345.469C379.389 345.083 378.712 344.891 377.947 344.891C377.707 344.891 377.491 344.919 377.298 344.977C377.106 345.029 376.939 345.104 376.798 345.203C376.663 345.302 376.556 345.422 376.478 345.562C376.405 345.698 376.369 345.849 376.369 346.016C376.369 346.224 376.405 346.398 376.478 346.539C376.556 346.68 376.668 346.805 376.814 346.914C376.96 347.023 377.137 347.122 377.345 347.211C377.554 347.299 377.791 347.396 378.056 347.5C378.41 347.635 378.728 347.776 379.009 347.922C379.291 348.062 379.53 348.224 379.728 348.406C379.926 348.583 380.077 348.789 380.181 349.023C380.291 349.258 380.345 349.536 380.345 349.859C380.345 350.255 380.257 350.599 380.08 350.891C379.908 351.182 379.676 351.424 379.384 351.617C379.093 351.81 378.757 351.953 378.376 352.047C377.996 352.141 377.598 352.188 377.181 352.188C376.358 352.188 375.645 352.029 375.041 351.711Z" fill="#155DFC"/>
<path d="M174.287 391.511C173.458 391.949 172.427 392.167 171.193 392.167C169.599 392.167 168.323 391.654 167.365 390.628C166.406 389.602 165.927 388.256 165.927 386.589C165.927 384.798 166.466 383.35 167.544 382.246C168.623 381.141 169.99 380.589 171.646 380.589C172.708 380.589 173.589 380.743 174.287 381.05V382.449C173.485 382.001 172.599 381.777 171.63 381.777C170.344 381.777 169.3 382.207 168.498 383.066C167.701 383.925 167.302 385.074 167.302 386.511C167.302 387.876 167.675 388.964 168.419 389.777C169.169 390.584 170.151 390.988 171.365 390.988C172.49 390.988 173.464 390.738 174.287 390.238V391.511ZM179.74 392.167C178.557 392.167 177.612 391.795 176.904 391.05C176.201 390.3 175.849 389.308 175.849 388.074C175.849 386.73 176.216 385.681 176.951 384.925C177.685 384.17 178.677 383.792 179.927 383.792C181.12 383.792 182.05 384.16 182.716 384.894C183.388 385.628 183.724 386.647 183.724 387.949C183.724 389.225 183.362 390.248 182.638 391.019C181.919 391.785 180.953 392.167 179.74 392.167ZM179.833 384.871C179.011 384.871 178.36 385.152 177.88 385.714C177.401 386.272 177.162 387.042 177.162 388.027C177.162 388.975 177.404 389.722 177.888 390.269C178.373 390.816 179.021 391.089 179.833 391.089C180.662 391.089 181.297 390.821 181.74 390.285C182.188 389.748 182.412 388.985 182.412 387.996C182.412 386.996 182.188 386.225 181.74 385.683C181.297 385.141 180.662 384.871 179.833 384.871ZM192.412 391.98H191.13V387.417C191.13 385.72 190.511 384.871 189.271 384.871C188.63 384.871 188.099 385.113 187.677 385.597C187.261 386.076 187.052 386.683 187.052 387.417V391.98H185.771V383.98H187.052V385.308H187.083C187.688 384.298 188.563 383.792 189.708 383.792C190.583 383.792 191.253 384.076 191.716 384.644C192.18 385.207 192.412 386.022 192.412 387.089V391.98ZM201.263 388.3H195.615C195.636 389.191 195.875 389.878 196.333 390.363C196.792 390.847 197.422 391.089 198.224 391.089C199.125 391.089 199.953 390.792 200.708 390.199V391.402C200.005 391.912 199.076 392.167 197.919 392.167C196.789 392.167 195.901 391.806 195.255 391.082C194.61 390.352 194.287 389.329 194.287 388.011C194.287 386.766 194.638 385.753 195.341 384.972C196.05 384.186 196.927 383.792 197.974 383.792C199.021 383.792 199.831 384.131 200.404 384.808C200.977 385.485 201.263 386.425 201.263 387.628V388.3ZM199.951 387.214C199.945 386.475 199.766 385.899 199.412 385.488C199.063 385.076 198.576 384.871 197.951 384.871C197.347 384.871 196.833 385.087 196.412 385.519C195.99 385.951 195.729 386.516 195.63 387.214H199.951ZM208.662 391.613C208.047 391.983 207.318 392.167 206.474 392.167C205.333 392.167 204.412 391.798 203.708 391.058C203.011 390.313 202.662 389.35 202.662 388.167C202.662 386.85 203.039 385.792 203.794 384.996C204.55 384.194 205.557 383.792 206.818 383.792C207.521 383.792 208.141 383.923 208.677 384.183V385.496C208.083 385.079 207.448 384.871 206.771 384.871C205.953 384.871 205.281 385.165 204.755 385.753C204.235 386.337 203.974 387.105 203.974 388.058C203.974 388.996 204.219 389.735 204.708 390.277C205.203 390.819 205.865 391.089 206.693 391.089C207.391 391.089 208.047 390.858 208.662 390.394V391.613ZM214.31 391.902C214.008 392.069 213.61 392.152 213.115 392.152C211.714 392.152 211.013 391.371 211.013 389.808V385.074H209.638V383.98H211.013V382.027L212.294 381.613V383.98H214.31V385.074H212.294V389.582C212.294 390.118 212.386 390.501 212.568 390.73C212.75 390.959 213.052 391.074 213.474 391.074C213.797 391.074 214.076 390.985 214.31 390.808V391.902ZM222.451 388.3H216.802C216.823 389.191 217.063 389.878 217.521 390.363C217.979 390.847 218.61 391.089 219.412 391.089C220.313 391.089 221.141 390.792 221.896 390.199V391.402C221.193 391.912 220.263 392.167 219.107 392.167C217.977 392.167 217.089 391.806 216.443 391.082C215.797 390.352 215.474 389.329 215.474 388.011C215.474 386.766 215.826 385.753 216.529 384.972C217.237 384.186 218.115 383.792 219.162 383.792C220.208 383.792 221.018 384.131 221.591 384.808C222.164 385.485 222.451 386.425 222.451 387.628V388.3ZM221.138 387.214C221.133 386.475 220.953 385.899 220.599 385.488C220.25 385.076 219.763 384.871 219.138 384.871C218.534 384.871 218.021 385.087 217.599 385.519C217.177 385.951 216.917 386.516 216.818 387.214H221.138ZM228.49 388.027H224.224V387.019H228.49V388.027ZM230.318 391.691V390.316C231.016 390.832 231.784 391.089 232.623 391.089C233.748 391.089 234.31 390.714 234.31 389.964C234.31 389.751 234.261 389.571 234.162 389.425C234.068 389.274 233.938 389.141 233.771 389.027C233.61 388.912 233.417 388.811 233.193 388.722C232.974 388.628 232.737 388.532 232.482 388.433C232.128 388.292 231.815 388.152 231.544 388.011C231.279 387.865 231.055 387.704 230.873 387.527C230.695 387.345 230.56 387.139 230.466 386.91C230.378 386.681 230.333 386.412 230.333 386.105C230.333 385.73 230.419 385.399 230.591 385.113C230.763 384.821 230.992 384.579 231.279 384.386C231.565 384.188 231.891 384.04 232.255 383.941C232.625 383.842 233.005 383.792 233.396 383.792C234.089 383.792 234.708 383.912 235.255 384.152V385.449C234.667 385.063 233.99 384.871 233.224 384.871C232.985 384.871 232.768 384.899 232.576 384.957C232.383 385.009 232.216 385.084 232.076 385.183C231.94 385.282 231.833 385.402 231.755 385.542C231.682 385.678 231.646 385.829 231.646 385.996C231.646 386.204 231.682 386.378 231.755 386.519C231.833 386.66 231.945 386.785 232.091 386.894C232.237 387.003 232.414 387.102 232.623 387.191C232.831 387.279 233.068 387.376 233.333 387.48C233.688 387.615 234.005 387.756 234.287 387.902C234.568 388.042 234.807 388.204 235.005 388.386C235.203 388.563 235.354 388.769 235.458 389.003C235.568 389.238 235.623 389.516 235.623 389.839C235.623 390.235 235.534 390.579 235.357 390.871C235.185 391.162 234.953 391.404 234.662 391.597C234.37 391.79 234.034 391.933 233.654 392.027C233.274 392.121 232.875 392.167 232.458 392.167C231.636 392.167 230.922 392.009 230.318 391.691ZM244.029 388.3H238.38C238.401 389.191 238.641 389.878 239.099 390.363C239.557 390.847 240.188 391.089 240.99 391.089C241.891 391.089 242.719 390.792 243.474 390.199V391.402C242.771 391.912 241.841 392.167 240.685 392.167C239.555 392.167 238.667 391.806 238.021 391.082C237.375 390.352 237.052 389.329 237.052 388.011C237.052 386.766 237.404 385.753 238.107 384.972C238.815 384.186 239.693 383.792 240.74 383.792C241.787 383.792 242.597 384.131 243.169 384.808C243.742 385.485 244.029 386.425 244.029 387.628V388.3ZM242.716 387.214C242.711 386.475 242.531 385.899 242.177 385.488C241.828 385.076 241.341 384.871 240.716 384.871C240.112 384.871 239.599 385.087 239.177 385.519C238.755 385.951 238.495 386.516 238.396 387.214H242.716ZM255.818 391.613C255.203 391.983 254.474 392.167 253.63 392.167C252.49 392.167 251.568 391.798 250.865 391.058C250.167 390.313 249.818 389.35 249.818 388.167C249.818 386.85 250.195 385.792 250.951 384.996C251.706 384.194 252.714 383.792 253.974 383.792C254.677 383.792 255.297 383.923 255.833 384.183V385.496C255.24 385.079 254.604 384.871 253.927 384.871C253.11 384.871 252.438 385.165 251.912 385.753C251.391 386.337 251.13 387.105 251.13 388.058C251.13 388.996 251.375 389.735 251.865 390.277C252.36 390.819 253.021 391.089 253.849 391.089C254.547 391.089 255.203 390.858 255.818 390.394V391.613ZM261.099 392.167C259.917 392.167 258.972 391.795 258.263 391.05C257.56 390.3 257.208 389.308 257.208 388.074C257.208 386.73 257.576 385.681 258.31 384.925C259.044 384.17 260.037 383.792 261.287 383.792C262.479 383.792 263.409 384.16 264.076 384.894C264.748 385.628 265.083 386.647 265.083 387.949C265.083 389.225 264.722 390.248 263.998 391.019C263.279 391.785 262.313 392.167 261.099 392.167ZM261.193 384.871C260.37 384.871 259.719 385.152 259.24 385.714C258.761 386.272 258.521 387.042 258.521 388.027C258.521 388.975 258.763 389.722 259.248 390.269C259.732 390.816 260.38 391.089 261.193 391.089C262.021 391.089 262.656 390.821 263.099 390.285C263.547 389.748 263.771 388.985 263.771 387.996C263.771 386.996 263.547 386.225 263.099 385.683C262.656 385.141 262.021 384.871 261.193 384.871ZM278.49 391.98H277.208V387.386C277.208 386.501 277.07 385.86 276.794 385.464C276.524 385.069 276.065 384.871 275.419 384.871C274.873 384.871 274.406 385.121 274.021 385.621C273.641 386.121 273.451 386.72 273.451 387.417V391.98H272.169V387.23C272.169 385.657 271.563 384.871 270.349 384.871C269.787 384.871 269.323 385.108 268.958 385.582C268.594 386.05 268.412 386.662 268.412 387.417V391.98H267.13V383.98H268.412V385.246H268.443C269.011 384.277 269.839 383.792 270.927 383.792C271.474 383.792 271.951 383.946 272.357 384.253C272.763 384.556 273.042 384.954 273.193 385.449C273.787 384.345 274.672 383.792 275.849 383.792C277.61 383.792 278.49 384.878 278.49 387.05V391.98ZM292.13 391.98H290.849V390.621H290.818C290.224 391.652 289.307 392.167 288.068 392.167C287.063 392.167 286.258 391.811 285.654 391.097C285.055 390.378 284.755 389.402 284.755 388.167C284.755 386.845 285.089 385.785 285.755 384.988C286.422 384.191 287.31 383.792 288.419 383.792C289.518 383.792 290.318 384.225 290.818 385.089H290.849V380.136H292.13V391.98ZM290.849 388.363V387.183C290.849 386.537 290.636 385.99 290.208 385.542C289.781 385.095 289.24 384.871 288.583 384.871C287.802 384.871 287.188 385.157 286.74 385.73C286.292 386.303 286.068 387.095 286.068 388.105C286.068 389.027 286.281 389.756 286.708 390.292C287.141 390.824 287.719 391.089 288.443 391.089C289.156 391.089 289.735 390.832 290.177 390.316C290.625 389.8 290.849 389.149 290.849 388.363ZM301.154 388.3H295.505C295.526 389.191 295.766 389.878 296.224 390.363C296.682 390.847 297.313 391.089 298.115 391.089C299.016 391.089 299.844 390.792 300.599 390.199V391.402C299.896 391.912 298.966 392.167 297.81 392.167C296.68 392.167 295.792 391.806 295.146 391.082C294.5 390.352 294.177 389.329 294.177 388.011C294.177 386.766 294.529 385.753 295.232 384.972C295.94 384.186 296.818 383.792 297.865 383.792C298.912 383.792 299.722 384.131 300.294 384.808C300.867 385.485 301.154 386.425 301.154 387.628V388.3ZM299.841 387.214C299.836 386.475 299.656 385.899 299.302 385.488C298.953 385.076 298.466 384.871 297.841 384.871C297.237 384.871 296.724 385.087 296.302 385.519C295.88 385.951 295.62 386.516 295.521 387.214H299.841ZM309.74 391.98H308.458V387.417C308.458 385.72 307.839 384.871 306.599 384.871C305.958 384.871 305.427 385.113 305.005 385.597C304.589 386.076 304.38 386.683 304.38 387.417V391.98H303.099V383.98H304.38V385.308H304.412C305.016 384.298 305.891 383.792 307.037 383.792C307.912 383.792 308.581 384.076 309.044 384.644C309.508 385.207 309.74 386.022 309.74 387.089V391.98ZM315.873 391.902C315.57 392.069 315.172 392.152 314.677 392.152C313.276 392.152 312.576 391.371 312.576 389.808V385.074H311.201V383.98H312.576V382.027L313.857 381.613V383.98H315.873V385.074H313.857V389.582C313.857 390.118 313.948 390.501 314.13 390.73C314.313 390.959 314.615 391.074 315.037 391.074C315.36 391.074 315.638 390.985 315.873 390.808V391.902ZM318.24 381.949C318.011 381.949 317.815 381.871 317.654 381.714C317.492 381.558 317.412 381.36 317.412 381.121C317.412 380.881 317.492 380.683 317.654 380.527C317.815 380.365 318.011 380.285 318.24 380.285C318.474 380.285 318.672 380.365 318.833 380.527C319 380.683 319.083 380.881 319.083 381.121C319.083 381.35 319 381.545 318.833 381.707C318.672 381.868 318.474 381.949 318.24 381.949ZM318.865 391.98H317.583V383.98H318.865V391.98ZM320.974 391.691V390.316C321.672 390.832 322.44 391.089 323.279 391.089C324.404 391.089 324.966 390.714 324.966 389.964C324.966 389.751 324.917 389.571 324.818 389.425C324.724 389.274 324.594 389.141 324.427 389.027C324.266 388.912 324.073 388.811 323.849 388.722C323.63 388.628 323.393 388.532 323.138 388.433C322.784 388.292 322.472 388.152 322.201 388.011C321.935 387.865 321.711 387.704 321.529 387.527C321.352 387.345 321.216 387.139 321.123 386.91C321.034 386.681 320.99 386.412 320.99 386.105C320.99 385.73 321.076 385.399 321.248 385.113C321.419 384.821 321.649 384.579 321.935 384.386C322.222 384.188 322.547 384.04 322.912 383.941C323.281 383.842 323.662 383.792 324.052 383.792C324.745 383.792 325.365 383.912 325.912 384.152V385.449C325.323 385.063 324.646 384.871 323.88 384.871C323.641 384.871 323.425 384.899 323.232 384.957C323.039 385.009 322.873 385.084 322.732 385.183C322.597 385.282 322.49 385.402 322.412 385.542C322.339 385.678 322.302 385.829 322.302 385.996C322.302 386.204 322.339 386.378 322.412 386.519C322.49 386.66 322.602 386.785 322.748 386.894C322.893 387.003 323.07 387.102 323.279 387.191C323.487 387.279 323.724 387.376 323.99 387.48C324.344 387.615 324.662 387.756 324.943 387.902C325.224 388.042 325.464 388.204 325.662 388.386C325.86 388.563 326.011 388.769 326.115 389.003C326.224 389.238 326.279 389.516 326.279 389.839C326.279 390.235 326.19 390.579 326.013 390.871C325.841 391.162 325.61 391.404 325.318 391.597C325.026 391.79 324.69 391.933 324.31 392.027C323.93 392.121 323.531 392.167 323.115 392.167C322.292 392.167 321.578 392.009 320.974 391.691ZM331.966 391.902C331.664 392.069 331.266 392.152 330.771 392.152C329.37 392.152 328.669 391.371 328.669 389.808V385.074H327.294V383.98H328.669V382.027L329.951 381.613V383.98H331.966V385.074H329.951V389.582C329.951 390.118 330.042 390.501 330.224 390.73C330.406 390.959 330.708 391.074 331.13 391.074C331.453 391.074 331.732 390.985 331.966 390.808V391.902ZM339.404 391.98H338.123V390.73H338.091C337.534 391.688 336.714 392.167 335.63 392.167C334.833 392.167 334.208 391.957 333.755 391.535C333.307 391.113 333.083 390.553 333.083 389.855C333.083 388.36 333.964 387.49 335.724 387.246L338.123 386.91C338.123 385.55 337.573 384.871 336.474 384.871C335.511 384.871 334.641 385.199 333.865 385.855V384.542C334.651 384.042 335.557 383.792 336.583 383.792C338.464 383.792 339.404 384.787 339.404 386.777V391.98ZM338.123 387.933L336.193 388.199C335.599 388.282 335.151 388.431 334.849 388.644C334.547 388.852 334.396 389.225 334.396 389.761C334.396 390.152 334.534 390.472 334.81 390.722C335.091 390.967 335.464 391.089 335.927 391.089C336.563 391.089 337.086 390.868 337.498 390.425C337.914 389.977 338.123 389.412 338.123 388.73V387.933ZM341.333 391.691V390.316C342.031 390.832 342.8 391.089 343.638 391.089C344.763 391.089 345.326 390.714 345.326 389.964C345.326 389.751 345.276 389.571 345.177 389.425C345.083 389.274 344.953 389.141 344.787 389.027C344.625 388.912 344.432 388.811 344.208 388.722C343.99 388.628 343.753 388.532 343.498 388.433C343.143 388.292 342.831 388.152 342.56 388.011C342.294 387.865 342.07 387.704 341.888 387.527C341.711 387.345 341.576 387.139 341.482 386.91C341.393 386.681 341.349 386.412 341.349 386.105C341.349 385.73 341.435 385.399 341.607 385.113C341.779 384.821 342.008 384.579 342.294 384.386C342.581 384.188 342.906 384.04 343.271 383.941C343.641 383.842 344.021 383.792 344.412 383.792C345.104 383.792 345.724 383.912 346.271 384.152V385.449C345.682 385.063 345.005 384.871 344.24 384.871C344 384.871 343.784 384.899 343.591 384.957C343.399 385.009 343.232 385.084 343.091 385.183C342.956 385.282 342.849 385.402 342.771 385.542C342.698 385.678 342.662 385.829 342.662 385.996C342.662 386.204 342.698 386.378 342.771 386.519C342.849 386.66 342.961 386.785 343.107 386.894C343.253 387.003 343.43 387.102 343.638 387.191C343.847 387.279 344.083 387.376 344.349 387.48C344.703 387.615 345.021 387.756 345.302 387.902C345.583 388.042 345.823 388.204 346.021 388.386C346.219 388.563 346.37 388.769 346.474 389.003C346.583 389.238 346.638 389.516 346.638 389.839C346.638 390.235 346.55 390.579 346.373 390.871C346.201 391.162 345.969 391.404 345.677 391.597C345.386 391.79 345.05 391.933 344.669 392.027C344.289 392.121 343.891 392.167 343.474 392.167C342.651 392.167 341.938 392.009 341.333 391.691ZM359.833 391.98H358.552V390.621H358.521C357.927 391.652 357.011 392.167 355.771 392.167C354.766 392.167 353.961 391.811 353.357 391.097C352.758 390.378 352.458 389.402 352.458 388.167C352.458 386.845 352.792 385.785 353.458 384.988C354.125 384.191 355.013 383.792 356.123 383.792C357.222 383.792 358.021 384.225 358.521 385.089H358.552V380.136H359.833V391.98ZM358.552 388.363V387.183C358.552 386.537 358.339 385.99 357.912 385.542C357.485 385.095 356.943 384.871 356.287 384.871C355.505 384.871 354.891 385.157 354.443 385.73C353.995 386.303 353.771 387.095 353.771 388.105C353.771 389.027 353.985 389.756 354.412 390.292C354.844 390.824 355.422 391.089 356.146 391.089C356.86 391.089 357.438 390.832 357.88 390.316C358.328 389.8 358.552 389.149 358.552 388.363ZM368.857 388.3H363.208C363.229 389.191 363.469 389.878 363.927 390.363C364.386 390.847 365.016 391.089 365.818 391.089C366.719 391.089 367.547 390.792 368.302 390.199V391.402C367.599 391.912 366.669 392.167 365.513 392.167C364.383 392.167 363.495 391.806 362.849 391.082C362.203 390.352 361.88 389.329 361.88 388.011C361.88 386.766 362.232 385.753 362.935 384.972C363.643 384.186 364.521 383.792 365.568 383.792C366.615 383.792 367.425 384.131 367.998 384.808C368.57 385.485 368.857 386.425 368.857 387.628V388.3ZM367.544 387.214C367.539 386.475 367.36 385.899 367.005 385.488C366.656 385.076 366.169 384.871 365.544 384.871C364.94 384.871 364.427 385.087 364.005 385.519C363.583 385.951 363.323 386.516 363.224 387.214H367.544ZM378.904 391.902C378.602 392.069 378.203 392.152 377.708 392.152C376.307 392.152 375.607 391.371 375.607 389.808V385.074H374.232V383.98H375.607V382.027L376.888 381.613V383.98H378.904V385.074H376.888V389.582C376.888 390.118 376.979 390.501 377.162 390.73C377.344 390.959 377.646 391.074 378.068 391.074C378.391 391.074 378.669 390.985 378.904 390.808V391.902ZM383.958 392.167C382.776 392.167 381.831 391.795 381.123 391.05C380.419 390.3 380.068 389.308 380.068 388.074C380.068 386.73 380.435 385.681 381.169 384.925C381.904 384.17 382.896 383.792 384.146 383.792C385.339 383.792 386.268 384.16 386.935 384.894C387.607 385.628 387.943 386.647 387.943 387.949C387.943 389.225 387.581 390.248 386.857 391.019C386.138 391.785 385.172 392.167 383.958 392.167ZM384.052 384.871C383.229 384.871 382.578 385.152 382.099 385.714C381.62 386.272 381.38 387.042 381.38 388.027C381.38 388.975 381.623 389.722 382.107 390.269C382.591 390.816 383.24 391.089 384.052 391.089C384.88 391.089 385.516 390.821 385.958 390.285C386.406 389.748 386.63 388.985 386.63 387.996C386.63 386.996 386.406 386.225 385.958 385.683C385.516 385.141 384.88 384.871 384.052 384.871ZM396.818 391.98H395.537V390.621H395.505C394.912 391.652 393.995 392.167 392.755 392.167C391.75 392.167 390.945 391.811 390.341 391.097C389.742 390.378 389.443 389.402 389.443 388.167C389.443 386.845 389.776 385.785 390.443 384.988C391.11 384.191 391.998 383.792 393.107 383.792C394.206 383.792 395.005 384.225 395.505 385.089H395.537V380.136H396.818V391.98ZM395.537 388.363V387.183C395.537 386.537 395.323 385.99 394.896 385.542C394.469 385.095 393.927 384.871 393.271 384.871C392.49 384.871 391.875 385.157 391.427 385.73C390.979 386.303 390.755 387.095 390.755 388.105C390.755 389.027 390.969 389.756 391.396 390.292C391.828 390.824 392.406 391.089 393.13 391.089C393.844 391.089 394.422 390.832 394.865 390.316C395.313 389.8 395.537 389.149 395.537 388.363ZM402.755 392.167C401.573 392.167 400.628 391.795 399.919 391.05C399.216 390.3 398.865 389.308 398.865 388.074C398.865 386.73 399.232 385.681 399.966 384.925C400.701 384.17 401.693 383.792 402.943 383.792C404.136 383.792 405.065 384.16 405.732 384.894C406.404 385.628 406.74 386.647 406.74 387.949C406.74 389.225 406.378 390.248 405.654 391.019C404.935 391.785 403.969 392.167 402.755 392.167ZM402.849 384.871C402.026 384.871 401.375 385.152 400.896 385.714C400.417 386.272 400.177 387.042 400.177 388.027C400.177 388.975 400.419 389.722 400.904 390.269C401.388 390.816 402.037 391.089 402.849 391.089C403.677 391.089 404.313 390.821 404.755 390.285C405.203 389.748 405.427 388.985 405.427 387.996C405.427 386.996 405.203 386.225 404.755 385.683C404.313 385.141 403.677 384.871 402.849 384.871ZM416.521 392.167C415.339 392.167 414.393 391.795 413.685 391.05C412.982 390.3 412.63 389.308 412.63 388.074C412.63 386.73 412.998 385.681 413.732 384.925C414.466 384.17 415.458 383.792 416.708 383.792C417.901 383.792 418.831 384.16 419.498 384.894C420.169 385.628 420.505 386.647 420.505 387.949C420.505 389.225 420.143 390.248 419.419 391.019C418.701 391.785 417.735 392.167 416.521 392.167ZM416.615 384.871C415.792 384.871 415.141 385.152 414.662 385.714C414.182 386.272 413.943 387.042 413.943 388.027C413.943 388.975 414.185 389.722 414.669 390.269C415.154 390.816 415.802 391.089 416.615 391.089C417.443 391.089 418.078 390.821 418.521 390.285C418.969 389.748 419.193 388.985 419.193 387.996C419.193 386.996 418.969 386.225 418.521 385.683C418.078 385.141 417.443 384.871 416.615 384.871ZM427.115 391.98V380.777H430.302C431.271 380.777 432.039 381.014 432.607 381.488C433.175 381.962 433.458 382.579 433.458 383.339C433.458 383.975 433.287 384.527 432.943 384.996C432.599 385.464 432.125 385.798 431.521 385.996V386.027C432.276 386.115 432.88 386.402 433.333 386.886C433.787 387.365 434.013 387.99 434.013 388.761C434.013 389.72 433.669 390.496 432.982 391.089C432.294 391.683 431.427 391.98 430.38 391.98H427.115ZM428.427 381.964V385.582H429.771C430.49 385.582 431.055 385.41 431.466 385.066C431.878 384.717 432.083 384.227 432.083 383.597C432.083 382.509 431.367 381.964 429.935 381.964H428.427ZM428.427 386.761V390.792H430.208C430.979 390.792 431.576 390.61 431.998 390.246C432.425 389.881 432.638 389.381 432.638 388.746C432.638 387.423 431.737 386.761 429.935 386.761H428.427ZM440.287 385.277C440.063 385.105 439.74 385.019 439.318 385.019C438.771 385.019 438.313 385.277 437.943 385.792C437.578 386.308 437.396 387.011 437.396 387.902V391.98H436.115V383.98H437.396V385.628H437.427C437.61 385.066 437.888 384.628 438.263 384.316C438.638 383.998 439.057 383.839 439.521 383.839C439.854 383.839 440.11 383.876 440.287 383.949V385.277ZM447.404 391.98H446.123V390.73H446.091C445.534 391.688 444.714 392.167 443.63 392.167C442.833 392.167 442.208 391.957 441.755 391.535C441.307 391.113 441.083 390.553 441.083 389.855C441.083 388.36 441.964 387.49 443.724 387.246L446.123 386.91C446.123 385.55 445.573 384.871 444.474 384.871C443.511 384.871 442.641 385.199 441.865 385.855V384.542C442.651 384.042 443.557 383.792 444.583 383.792C446.464 383.792 447.404 384.787 447.404 386.777V391.98ZM446.123 387.933L444.193 388.199C443.599 388.282 443.151 388.431 442.849 388.644C442.547 388.852 442.396 389.225 442.396 389.761C442.396 390.152 442.534 390.472 442.81 390.722C443.091 390.967 443.464 391.089 443.927 391.089C444.563 391.089 445.086 390.868 445.498 390.425C445.914 389.977 446.123 389.412 446.123 388.73V387.933ZM449.333 391.691V390.316C450.031 390.832 450.8 391.089 451.638 391.089C452.763 391.089 453.326 390.714 453.326 389.964C453.326 389.751 453.276 389.571 453.177 389.425C453.083 389.274 452.953 389.141 452.787 389.027C452.625 388.912 452.432 388.811 452.208 388.722C451.99 388.628 451.753 388.532 451.498 388.433C451.143 388.292 450.831 388.152 450.56 388.011C450.294 387.865 450.07 387.704 449.888 387.527C449.711 387.345 449.576 387.139 449.482 386.91C449.393 386.681 449.349 386.412 449.349 386.105C449.349 385.73 449.435 385.399 449.607 385.113C449.779 384.821 450.008 384.579 450.294 384.386C450.581 384.188 450.906 384.04 451.271 383.941C451.641 383.842 452.021 383.792 452.412 383.792C453.104 383.792 453.724 383.912 454.271 384.152V385.449C453.682 385.063 453.005 384.871 452.24 384.871C452 384.871 451.784 384.899 451.591 384.957C451.399 385.009 451.232 385.084 451.091 385.183C450.956 385.282 450.849 385.402 450.771 385.542C450.698 385.678 450.662 385.829 450.662 385.996C450.662 386.204 450.698 386.378 450.771 386.519C450.849 386.66 450.961 386.785 451.107 386.894C451.253 387.003 451.43 387.102 451.638 387.191C451.847 387.279 452.083 387.376 452.349 387.48C452.703 387.615 453.021 387.756 453.302 387.902C453.583 388.042 453.823 388.204 454.021 388.386C454.219 388.563 454.37 388.769 454.474 389.003C454.583 389.238 454.638 389.516 454.638 389.839C454.638 390.235 454.55 390.579 454.373 390.871C454.201 391.162 453.969 391.404 453.677 391.597C453.386 391.79 453.05 391.933 452.669 392.027C452.289 392.121 451.891 392.167 451.474 392.167C450.651 392.167 449.938 392.009 449.333 391.691ZM457.271 381.949C457.042 381.949 456.847 381.871 456.685 381.714C456.524 381.558 456.443 381.36 456.443 381.121C456.443 380.881 456.524 380.683 456.685 380.527C456.847 380.365 457.042 380.285 457.271 380.285C457.505 380.285 457.703 380.365 457.865 380.527C458.031 380.683 458.115 380.881 458.115 381.121C458.115 381.35 458.031 381.545 457.865 381.707C457.703 381.868 457.505 381.949 457.271 381.949ZM457.896 391.98H456.615V383.98H457.896V391.98ZM461.771 391.98H460.49V380.136H461.771V391.98Z" fill="#4A5565"/>
</g>
<defs>
<filter id="filter0_d_216_2865" x="0" y="0" width="627.99" height="627.99" filterUnits="userSpaceOnUse" color-interpolation-filters="sRGB">
<feFlood flood-opacity="0" result="BackgroundImageFix"/>
<feColorMatrix in="SourceAlpha" type="matrix" values="0 0 0 0 0 0 0 0 0 0 0 0 0 0 0 0 0 0 127 0" result="hardAlpha"/>
<feMorphology radius="12" operator="erode" in="SourceAlpha" result="effect1_dropShadow_216_2865"/>
<feOffset dy="25"/>
<feGaussianBlur stdDeviation="25"/>
<feComposite in2="hardAlpha" operator="out"/>
<feColorMatrix type="matrix" values="0 0 0 0 0 0 0 0 0 0 0 0 0 0 0 0 0 0 0.25 0"/>
<feBlend mode="normal" in2="BackgroundImageFix" result="effect1_dropShadow_216_2865"/>
<feBlend mode="normal" in="SourceGraphic" in2="effect1_dropShadow_216_2865" result="shape"/>
</filter>
<linearGradient id="paint0_linear_216_2865" x1="38" y1="13" x2="589.99" y2="564.99" gradientUnits="userSpaceOnUse">
<stop stop-color="#DBEAFE"/>
<stop offset="1" stop-color="#CEFAFE"/>
</linearGradient>
<linearGradient id="paint1_linear_216_2865" x1="249.99" y1="181.03" x2="377.98" y2="309.02" gradientUnits="userSpaceOnUse">
<stop stop-color="#155DFC"/>
<stop offset="1" stop-color="#00B8DB"/>
</linearGradient>
</defs>
</svg>
