<svg width="48" height="48" viewBox="0 0 48 48" fill="none" xmlns="http://www.w3.org/2000/svg">
<rect width="47.99" height="47.99" rx="10" fill="#DBEAFE"/>
<path d="M23.0129 14.8167C23.0557 14.5875 23.1773 14.3805 23.3567 14.2315C23.536 14.0825 23.7619 14.001 23.995 14.001C24.2282 14.001 24.454 14.0825 24.6334 14.2315C24.8128 14.3805 24.9344 14.5875 24.9772 14.8167L26.0273 20.3701C26.1019 20.7649 26.2938 21.128 26.5779 21.4122C26.862 21.6963 27.2252 21.8881 27.62 21.9627L33.1734 23.0129C33.4026 23.0557 33.6096 23.1773 33.7586 23.3567C33.9075 23.536 33.9891 23.7619 33.9891 23.995C33.9891 24.2282 33.9075 24.454 33.7586 24.6334C33.6096 24.8128 33.4026 24.9344 33.1734 24.9772L27.62 26.0273C27.2252 26.1019 26.862 26.2938 26.5779 26.5779C26.2938 26.862 26.1019 27.2252 26.0273 27.62L24.9772 33.1734C24.9344 33.4026 24.8128 33.6096 24.6334 33.7586C24.454 33.9075 24.2282 33.9891 23.995 33.9891C23.7619 33.9891 23.536 33.9075 23.3567 33.7586C23.1773 33.6096 23.0557 33.4026 23.0129 33.1734L21.9627 27.62C21.8881 27.2252 21.6963 26.862 21.4122 26.5779C21.128 26.2938 20.7649 26.1019 20.3701 26.0273L14.8167 24.9772C14.5875 24.9344 14.3805 24.8128 14.2315 24.6334C14.0825 24.454 14.001 24.2282 14.001 23.995C14.001 23.7619 14.0825 23.536 14.2315 23.3567C14.3805 23.1773 14.5875 23.0557 14.8167 23.0129L20.3701 21.9627C20.7649 21.8881 21.128 21.6963 21.4122 21.4122C21.6963 21.128 21.8881 20.7649 21.9627 20.3701L23.0129 14.8167Z" stroke="#155DFC" stroke-width="1.99833" stroke-linecap="round" stroke-linejoin="round"/>
<path d="M31.9883 14.0034V18.0008" stroke="#155DFC" stroke-width="1.99833" stroke-linecap="round" stroke-linejoin="round"/>
<path d="M33.9871 16.0015H29.9897" stroke="#155DFC" stroke-width="1.99833" stroke-linecap="round" stroke-linejoin="round"/>
<path d="M16.0021 33.9871C17.106 33.9871 18.0008 33.0923 18.0008 31.9884C18.0008 30.8846 17.106 29.9897 16.0021 29.9897C14.8983 29.9897 14.0034 30.8846 14.0034 31.9884C14.0034 33.0923 14.8983 33.9871 16.0021 33.9871Z" stroke="#155DFC" stroke-width="1.99833" stroke-linecap="round" stroke-linejoin="round"/>
</svg>
