<svg width="48" height="48" viewBox="0 0 48 48" fill="none" xmlns="http://www.w3.org/2000/svg">
<rect width="47.99" height="47.99" rx="10" fill="#DBEAFE"/>
<path d="M33.407 22.9179C33.5859 22.839 33.7377 22.7094 33.8436 22.545C33.9495 22.3807 34.0049 22.1889 34.0029 21.9934C34.0008 21.7979 33.9415 21.6073 33.8322 21.4452C33.7229 21.2831 33.5685 21.1566 33.388 21.0814L24.8242 17.1807C24.5638 17.0619 24.281 17.0005 23.9949 17.0005C23.7087 17.0005 23.4259 17.0619 23.1656 17.1807L14.6027 21.0774C14.4248 21.1554 14.2735 21.2834 14.1672 21.446C14.061 21.6085 14.0044 21.7985 14.0044 21.9927C14.0044 22.1869 14.061 22.3769 14.1672 22.5394C14.2735 22.702 14.4248 22.83 14.6027 22.9079L23.1656 26.8127C23.4259 26.9314 23.7087 26.9929 23.9949 26.9929C24.281 26.9929 24.5638 26.9314 24.8242 26.8127L33.407 22.9179Z" stroke="#155DFC" stroke-width="1.99833" stroke-linecap="round" stroke-linejoin="round"/>
<path d="M33.9863 21.9966V27.9916" stroke="#155DFC" stroke-width="1.99833" stroke-linecap="round" stroke-linejoin="round"/>
<path d="M18 24.4946V27.9917C18 28.7867 18.6316 29.5491 19.7559 30.1113C20.8802 30.6734 22.405 30.9892 23.995 30.9892C25.585 30.9892 27.1098 30.6734 28.2341 30.1113C29.3584 29.5491 29.99 28.7867 29.99 27.9917V24.4946" stroke="#155DFC" stroke-width="1.99833" stroke-linecap="round" stroke-linejoin="round"/>
</svg>
